<?xml version="1.0" standalone="no"?>
<!DOCTYPE svg PUBLIC "-//W3C//DTD SVG 20010904//EN"
 "http://www.w3.org/TR/2001/REC-SVG-20010904/DTD/svg10.dtd">
<svg version="1.0" xmlns="http://www.w3.org/2000/svg"
 width="692.000000pt" height="692.000000pt" viewBox="0 0 692.000000 692.000000"
 preserveAspectRatio="xMidYMid meet">
<metadata>
Created by potrace 1.11, written by Peter Selinger 2001-2013
</metadata>
<g transform="translate(0.000000,692.000000) scale(0.100000,-0.100000)"
fill="#000000" stroke="none">
<path d="M6090 4840 c-9 -6 -10 -10 -3 -10 6 0 15 5 18 10 8 12 4 12 -15 0z"/>
<path d="M6156 4841 c-3 -5 2 -15 12 -22 15 -12 16 -12 5 2 -7 9 -10 19 -6 22
3 4 4 7 0 7 -3 0 -8 -4 -11 -9z"/>
<path d="M772 4834 c7 -13 -30 -46 -37 -34 -4 6 -1 10 5 10 6 0 9 4 5 10 -3 5
-12 7 -20 4 -8 -4 -12 -10 -9 -15 3 -5 -2 -6 -10 -3 -9 3 -13 11 -10 16 4 6
-3 5 -15 -1 -11 -7 -21 -8 -21 -4 0 4 -5 0 -11 -10 -10 -18 -11 -18 -32 0 -17
15 -19 15 -15 2 4 -9 1 -16 -8 -16 -7 0 -11 4 -8 9 6 10 -45 2 -55 -8 -3 -4 2
-4 11 -1 12 4 15 2 11 -9 -3 -8 1 -14 10 -14 9 0 19 -9 22 -20 6 -18 24 -25
50 -20 6 1 4 -4 -2 -11 -19 -19 -16 -31 6 -20 24 13 33 3 20 -22 -8 -14 -8
-18 0 -13 6 4 11 2 11 -4 0 -7 8 -9 19 -5 20 6 23 -8 8 -31 -4 -7 2 -11 16
-10 14 1 21 -4 19 -13 -3 -12 0 -12 12 -2 12 10 14 9 8 -11 -5 -20 -3 -21 10
-11 15 13 28 8 28 -11 0 -6 -4 -5 -9 3 -6 9 -8 5 -8 -13 0 -14 4 -26 9 -26 5
0 6 5 3 10 -3 6 1 10 9 10 9 0 16 6 16 13 0 9 2 9 9 -1 10 -17 21 -17 31 -2 5
9 9 9 14 1 4 -6 2 -11 -4 -11 -6 0 -8 -5 -4 -12 4 -7 3 -8 -4 -4 -7 4 -12 3
-12 -3 0 -5 8 -15 18 -20 9 -6 13 -11 8 -11 -5 0 -5 -6 0 -13 5 -7 2 -6 -6 3
-8 9 -19 18 -25 21 -5 2 -10 9 -10 16 0 6 -4 15 -8 19 -9 9 -9 -18 -1 -40 3
-9 13 -16 21 -16 10 0 13 -6 9 -16 -3 -8 -2 -13 2 -10 4 2 19 -5 32 -15 23
-19 23 -19 3 -9 -13 6 -23 7 -23 1 0 -5 11 -12 25 -15 14 -4 25 -11 25 -16 0
-5 -8 -7 -17 -3 -15 5 -14 3 2 -10 18 -14 21 -14 27 1 5 14 7 14 7 1 1 -8 -5
-21 -11 -28 -10 -11 -10 -13 0 -7 6 4 12 2 12 -4 0 -6 5 -8 13 -4 9 6 9 4 -1
-8 -10 -13 -10 -17 3 -22 9 -3 14 -2 11 3 -3 5 1 12 10 15 15 6 15 4 0 -18
-19 -30 -20 -36 -5 -36 5 0 7 4 4 10 -3 6 1 7 10 4 11 -5 13 -10 5 -19 -8 -9
-7 -15 2 -18 10 -4 10 -8 -2 -16 -13 -10 -13 -11 0 -12 8 -1 18 -1 23 0 4 0 7
-6 7 -14 0 -8 5 -15 10 -15 6 0 10 -5 10 -11 0 -5 -4 -7 -10 -4 -5 3 -10 1
-10 -4 0 -6 4 -11 9 -11 5 0 8 -11 7 -25 -2 -13 0 -22 5 -20 10 7 39 -5 39
-17 0 -5 -5 -6 -12 -2 -6 4 -8 3 -4 -4 3 -6 16 -9 27 -7 27 5 62 -13 53 -27
-5 -8 -1 -9 10 -5 10 4 15 3 11 -3 -3 -6 -1 -10 4 -10 6 0 11 -5 11 -11 0 -5
-4 -7 -10 -4 -5 3 -10 -1 -10 -10 0 -9 4 -14 9 -11 5 3 11 -1 14 -9 4 -9 1
-12 -9 -8 -7 3 -14 0 -14 -6 0 -6 5 -11 10 -11 6 0 10 -5 10 -11 0 -8 -4 -8
-14 0 -9 7 -17 8 -20 2 -3 -5 0 -12 6 -15 7 -3 3 -3 -9 -1 -12 3 -24 1 -28 -4
-4 -7 1 -8 12 -4 15 6 16 4 5 -9 -10 -12 -10 -18 -1 -23 8 -6 7 -10 -2 -17
-11 -7 -9 -8 5 -4 14 5 17 2 12 -9 -4 -10 2 -19 17 -26 l22 -10 -22 5 c-13 2
-26 -1 -30 -6 -3 -7 -1 -8 6 -4 7 4 15 -2 20 -15 9 -27 3 -61 -10 -53 -16 9
-10 -3 8 -17 10 -8 14 -9 10 -2 -4 6 -3 14 2 17 21 13 20 -14 -1 -30 -15 -11
-17 -14 -5 -11 9 4 17 2 17 -4 0 -6 5 -7 12 -3 7 4 8 3 4 -5 -4 -6 -11 -9 -16
-6 -5 3 -12 1 -15 -5 -4 -6 -1 -9 6 -8 6 2 14 -3 17 -11 3 -9 0 -11 -9 -6 -8
5 -6 0 4 -12 19 -22 22 -33 6 -33 -5 0 -7 5 -3 12 4 7 3 8 -4 4 -15 -9 -3 -38
12 -29 6 3 2 -4 -8 -16 -14 -16 -16 -20 -5 -16 12 4 15 -2 15 -29 0 -19 -4
-32 -8 -30 -5 3 -8 0 -8 -5 0 -6 4 -11 8 -11 5 0 9 -7 9 -15 0 -8 -4 -12 -9
-9 -4 3 -8 0 -8 -5 0 -6 6 -11 13 -11 8 0 7 -4 -3 -10 -10 -6 -11 -10 -2 -10
6 0 12 -5 12 -11 0 -5 -4 -8 -8 -5 -5 3 -9 -1 -9 -9 0 -8 3 -15 7 -15 4 0 7
-14 7 -30 0 -20 -3 -26 -8 -18 -5 8 -8 -1 -7 -23 1 -20 -2 -41 -6 -47 -3 -6
-1 -14 6 -19 7 -4 13 -20 14 -35 0 -15 -4 -25 -8 -22 -4 3 -8 0 -8 -6 0 -6 -4
-9 -9 -5 -5 3 -13 0 -17 -6 -4 -7 -3 -9 4 -5 16 10 26 -14 12 -27 -10 -9 -11
-9 -5 2 5 10 4 12 -4 7 -6 -4 -9 -11 -6 -16 3 -5 1 -11 -4 -14 -5 -4 -7 -19
-4 -34 11 -62 11 -70 -7 -65 -10 3 -21 0 -24 -6 -4 -6 -1 -9 7 -5 8 3 18 1 22
-5 3 -6 -1 -11 -11 -11 -16 0 -16 -1 2 -15 16 -13 16 -14 2 -9 -11 4 -18 1
-18 -6 0 -6 -4 -9 -9 -5 -5 3 -13 1 -16 -5 -4 -6 -1 -9 6 -8 8 2 14 -7 15 -20
1 -17 -3 -22 -14 -17 -12 4 -13 3 -2 -10 10 -12 10 -15 0 -15 -9 0 -7 -7 6
-21 14 -15 15 -20 4 -17 -8 2 -14 -3 -12 -10 1 -8 -1 -11 -5 -9 -5 3 -14 -1
-21 -9 -10 -11 -10 -14 0 -14 10 0 10 -2 0 -9 -8 -4 -12 -16 -10 -26 2 -10 -3
-20 -11 -23 -10 -3 -11 2 -7 19 7 24 7 24 -8 -1 -10 -18 -11 -27 -3 -32 9 -5
8 -11 -2 -20 -11 -11 -13 -11 -6 1 5 9 4 12 -3 7 -6 -4 -9 -13 -6 -21 4 -8 11
-12 17 -8 6 3 7 1 3 -6 -6 -9 -14 -8 -34 5 -22 14 -25 15 -14 2 7 -9 9 -18 5
-20 -4 -3 -3 -4 2 -2 6 1 11 -7 11 -17 0 -14 -3 -16 -15 -6 -11 9 -13 9 -8 0
9 -14 -2 -45 -14 -37 -13 8 -11 -10 4 -25 10 -11 8 -11 -12 -1 -13 6 -21 8
-17 2 3 -5 -3 -17 -14 -27 -11 -10 -17 -22 -14 -26 10 -17 -6 -48 -23 -42 -11
4 -14 2 -11 -8 6 -17 -14 -60 -38 -80 -11 -9 -15 -9 -10 -1 4 6 2 12 -3 12
-15 0 -14 -27 2 -33 6 -3 -3 -4 -20 -2 -18 2 -33 -1 -33 -6 0 -5 5 -9 11 -9 5
0 7 -5 4 -10 -4 -6 -10 -8 -14 -5 -15 8 -57 -55 -52 -78 1 -5 -3 -6 -9 -2 -8
5 -7 12 1 23 11 14 9 14 -6 -1 -17 -15 -18 -20 -6 -40 14 -22 14 -22 -8 -3
-21 19 -21 19 -21 -2 0 -12 -5 -22 -11 -22 -5 0 -7 6 -3 13 5 8 2 7 -10 -2 -9
-8 -15 -20 -12 -28 3 -8 1 -11 -4 -8 -6 3 -10 0 -10 -7 0 -9 -3 -9 -10 2 -8
13 -14 11 -35 -13 -14 -15 -21 -27 -15 -27 6 0 8 -5 5 -10 -4 -6 -11 -8 -16
-5 -5 4 -9 1 -9 -4 0 -6 5 -11 11 -11 5 0 7 -5 3 -12 -4 -7 -3 -8 5 -4 6 4 8
13 5 19 -5 9 -3 9 6 0 11 -10 11 -15 -1 -30 -12 -16 -12 -17 2 -6 12 10 18 10
27 1 9 -9 12 -8 12 5 0 15 3 16 21 6 15 -7 19 -8 15 0 -5 7 -1 9 8 5 9 -3 13
-10 10 -15 -3 -5 2 -6 10 -3 9 3 12 12 8 22 -5 14 -4 15 10 2 9 -8 13 -19 10
-25 -3 -5 5 -1 17 9 16 15 20 16 16 5 -4 -10 0 -16 9 -16 8 0 13 4 10 8 -2 4
0 10 6 14 5 3 10 -1 10 -10 0 -14 2 -14 25 1 23 15 25 15 31 0 6 -15 8 -15 20
1 13 17 14 17 8 0 -6 -15 -3 -16 21 -7 34 13 38 13 29 -2 -6 -10 -4 -10 8 0
12 9 18 10 23 2 5 -7 14 0 26 19 10 17 22 31 25 31 4 0 1 -7 -6 -15 -14 -17
-7 -31 20 -38 11 -3 18 -1 14 4 -3 5 -12 9 -20 9 -8 0 -12 5 -9 10 3 6 15 10
26 10 14 0 18 -4 13 -12 -6 -10 -5 -10 8 -1 8 7 19 9 23 5 5 -4 5 -1 1 6 -4 6
-2 12 4 12 6 0 8 5 4 12 -4 7 -3 8 5 4 6 -4 9 -11 7 -15 -3 -4 1 -8 9 -8 8 0
12 4 9 9 -3 4 -1 8 5 8 5 0 12 -6 14 -12 4 -10 6 -10 6 0 1 6 13 12 28 12 25
0 26 1 8 13 -16 13 -15 14 15 9 23 -3 31 -1 26 7 -4 6 -2 11 3 11 6 0 11 -4
11 -9 0 -17 55 -5 58 13 2 9 8 14 13 10 5 -3 6 -10 3 -16 -5 -7 -2 -8 5 -4 7
5 10 14 7 22 -3 7 -1 16 4 19 6 4 10 -2 10 -12 0 -15 2 -14 16 5 8 12 12 28 8
35 -5 9 -4 9 6 0 10 -10 11 -15 1 -27 -10 -12 -9 -14 8 -9 12 3 18 9 15 14 -3
5 0 9 7 9 8 0 9 4 0 13 -8 11 -6 13 11 12 12 -1 24 -7 26 -15 3 -7 0 -10 -5
-7 -5 3 -10 0 -10 -8 0 -11 4 -12 14 -3 8 6 11 19 7 32 -6 19 -5 19 10 7 15
-12 19 -12 26 -1 4 7 6 18 4 25 -3 6 2 12 10 12 8 0 13 -4 11 -8 -3 -3 3 -13
13 -20 15 -13 16 -12 4 3 -11 14 -10 17 8 23 11 3 18 11 15 16 -4 5 0 10 7 11
7 0 18 2 23 2 6 1 19 8 30 15 18 11 18 12 1 7 -16 -5 -17 -4 -7 8 7 8 20 12
28 9 12 -5 14 -3 8 7 -6 9 -4 12 6 8 16 -6 19 28 4 52 -5 9 -4 11 3 6 7 -4 12
-2 12 3 0 6 5 11 11 11 8 0 8 -5 -1 -15 -16 -19 -3 -19 16 0 12 12 12 15 2 15
-10 0 -9 3 2 10 12 7 11 12 -5 31 l-20 23 30 -18 30 -19 -19 21 c-19 22 -19
22 3 22 12 0 20 -4 16 -9 -9 -15 15 -25 28 -12 9 9 7 10 -8 5 -18 -7 -18 -6
-7 9 8 9 19 15 24 14 6 -1 12 6 13 17 5 26 21 40 21 17 0 -11 -5 -17 -10 -14
-5 3 -6 1 -2 -6 4 -6 4 -18 -1 -24 -4 -7 0 -4 11 8 10 11 23 19 28 17 5 -1 3
8 -3 20 -12 22 -11 22 6 8 17 -14 18 -13 12 3 -4 11 -3 16 3 12 6 -3 13 1 16
10 4 10 13 13 25 10 11 -4 19 -2 19 3 0 11 -32 12 -47 0 -7 -5 -14 -5 -18 2
-4 6 -1 9 7 8 7 -2 12 2 11 8 -1 6 9 10 22 9 18 -2 23 1 20 16 -2 10 1 21 6
24 5 4 6 11 3 17 -4 7 -2 8 5 4 9 -6 9 -11 0 -22 -8 -10 -8 -14 0 -14 6 0 11
5 11 11 0 5 5 7 11 3 8 -5 8 -1 0 14 -14 26 -14 32 -1 32 6 0 9 -5 8 -11 -2
-6 4 -14 12 -16 9 -3 11 -1 5 4 -18 15 -14 43 6 43 11 0 19 5 19 11 0 5 -4 8
-9 5 -5 -3 -15 2 -22 12 -13 16 -12 16 4 3 17 -13 18 -13 15 3 -1 10 6 23 16
30 11 6 28 20 39 30 16 15 17 18 4 13 -9 -3 -17 -2 -17 3 0 6 5 11 10 11 6 1
14 2 19 3 5 0 13 5 18 9 4 5 3 7 -2 5 -6 -1 -11 1 -12 6 -1 5 -7 13 -15 18 -9
6 -6 7 10 3 26 -8 29 3 5 21 -17 13 -17 14 2 7 17 -6 18 -4 8 8 -10 13 -10 16
2 16 8 0 12 -4 9 -9 -3 -4 -1 -8 4 -8 15 0 21 37 9 49 -8 8 -7 11 2 11 11 0
11 3 1 15 -11 13 -10 14 6 9 10 -4 16 -4 12 1 -4 4 -2 15 5 23 10 13 9 14 -11
3 -21 -11 -22 -11 -10 8 6 11 16 17 22 14 5 -4 7 1 2 12 -5 14 -4 16 7 7 11
-9 13 -7 12 9 -1 11 -8 25 -16 30 -10 6 -10 9 -1 9 6 0 12 7 12 16 0 9 5 12
13 8 6 -4 4 2 -6 13 -13 14 -15 23 -7 28 8 5 8 11 -1 21 -10 12 -10 15 2 12 9
-2 13 4 11 18 -1 12 4 26 12 33 12 10 14 9 12 -3 -1 -9 -5 -19 -9 -22 -4 -4
-3 -12 2 -18 14 -17 11 -30 -9 -41 -19 -10 -19 -11 3 -24 20 -13 21 -13 8 2
-7 10 -9 17 -3 17 15 0 20 -21 12 -51 -6 -18 -4 -26 6 -26 7 0 10 5 7 10 -3 6
-1 7 5 3 7 -4 17 -17 22 -29 11 -21 11 -21 -4 -3 -20 25 -21 7 -2 -20 11 -15
12 -22 3 -33 -9 -12 -9 -13 1 -7 7 4 12 1 12 -9 0 -10 -5 -14 -12 -9 -10 5
-10 4 -1 -6 6 -7 9 -20 6 -29 -4 -14 -3 -14 6 -1 9 13 11 13 12 0 1 -8 1 -18
0 -22 0 -5 4 -8 10 -8 6 0 9 7 6 15 -4 8 -1 17 6 21 7 4 9 4 5 -1 -4 -4 -3
-17 3 -28 7 -13 7 -17 1 -13 -18 11 -23 -11 -7 -27 8 -9 15 -22 15 -31 0 -8 5
-18 12 -22 7 -5 8 -3 3 6 -5 8 -4 11 2 7 6 -4 8 -19 5 -33 -3 -19 -1 -25 6
-20 8 5 10 1 6 -9 -4 -10 -2 -15 6 -13 7 2 15 -3 18 -11 2 -8 0 -11 -6 -7 -6
3 -14 2 -17 -4 -4 -6 -3 -10 2 -9 23 4 43 -2 38 -11 -4 -6 -10 -8 -14 -6 -4 3
-8 -1 -8 -9 0 -8 4 -12 8 -10 4 3 15 -3 26 -13 10 -9 13 -13 6 -8 -10 6 -12 4
-7 -8 3 -9 13 -16 21 -16 13 0 13 -3 3 -15 -7 -9 -10 -18 -6 -22 3 -3 6 -2 6
3 0 5 10 10 21 11 20 2 20 1 4 -11 -14 -10 -15 -15 -5 -21 9 -6 11 -4 6 6 -4
8 -1 6 7 -3 8 -10 16 -17 18 -15 2 1 -3 -4 -11 -12 -13 -11 -12 -12 9 -6 18 5
22 4 16 -6 -6 -9 -3 -11 9 -6 11 5 15 3 10 -4 -4 -7 4 -21 17 -31 13 -11 18
-17 12 -13 -7 3 -13 1 -13 -4 0 -10 14 -15 33 -12 5 1 6 -3 2 -9 -3 -5 -1 -10
4 -10 6 0 11 -7 11 -16 0 -10 6 -14 15 -10 9 3 19 -3 26 -16 9 -16 8 -19 -3
-13 -10 6 -10 5 -2 -4 6 -7 20 -14 30 -15 13 -3 18 -10 16 -27 -2 -22 -2 -23
11 -5 8 10 20 16 28 13 10 -4 9 -6 -3 -6 -22 -1 -22 -6 -2 -30 10 -11 23 -17
30 -14 7 3 23 -2 36 -11 12 -9 17 -16 11 -16 -7 0 -15 5 -18 10 -3 6 -12 10
-18 9 -9 0 -8 -2 1 -6 6 -2 10 -8 8 -12 -3 -4 0 -8 7 -9 7 0 23 -4 36 -8 19
-5 22 -4 16 6 -6 9 -4 11 4 6 7 -5 10 -14 8 -20 -3 -7 -1 -19 5 -27 8 -11 9
-11 4 3 -3 10 -1 20 5 23 5 4 9 3 8 -2 -1 -4 0 -17 1 -28 2 -17 3 -17 10 5 7
22 8 22 10 5 1 -11 2 -23 1 -27 -1 -10 32 3 41 16 5 8 8 7 8 -1 0 -7 -8 -17
-17 -22 -17 -10 -17 -10 0 -11 12 0 16 -4 11 -12 -5 -9 -2 -9 9 1 13 10 17 10
17 1 0 -9 4 -9 17 1 14 12 16 12 8 0 -6 -11 -4 -13 10 -7 16 6 16 4 4 -11 -12
-15 -12 -16 3 -10 10 3 20 1 24 -5 5 -7 2 -8 -6 -3 -9 5 -11 4 -6 -4 6 -9 11
-9 22 0 9 7 14 8 14 1 0 -6 9 -14 20 -17 11 -3 27 -13 35 -22 12 -12 19 -13
30 -3 8 7 15 9 15 4 0 -5 12 -10 27 -11 15 0 29 -6 31 -12 2 -6 8 -9 13 -5 5
3 9 0 9 -7 0 -8 4 -8 15 1 13 11 14 10 9 -6 -4 -10 -4 -16 1 -12 4 4 17 3 29
-3 20 -9 20 -9 3 4 -17 14 -16 15 7 13 15 0 26 -5 26 -9 0 -4 9 -3 19 3 14 7
22 7 27 -1 4 -8 9 -7 15 2 7 11 9 10 9 -4 0 -10 5 -15 10 -12 6 4 7 11 4 17
-4 6 2 6 15 -1 25 -14 28 -22 4 -15 -10 3 -7 -1 6 -9 26 -15 61 -12 61 7 0 7
3 7 8 1 10 -14 45 -16 55 -2 6 8 7 6 4 -5 -3 -9 0 -19 8 -21 18 -7 55 3 55 15
0 5 -6 6 -12 2 -8 -4 -10 -3 -5 2 5 5 18 9 30 9 12 1 27 4 34 8 6 4 15 2 19
-4 4 -7 3 -9 -4 -5 -6 3 -13 2 -16 -2 -7 -12 41 -9 51 2 4 5 3 6 -3 3 -6 -3
-11 0 -11 8 0 11 4 12 14 4 10 -9 17 -8 30 2 11 10 14 10 9 2 -4 -7 -3 -13 1
-13 5 0 15 6 22 13 11 10 13 10 7 -1 -9 -16 6 -16 22 0 10 10 15 10 21 -1 6
-9 11 -10 15 -2 4 6 18 11 31 11 15 0 26 7 30 21 5 15 10 18 18 10 13 -13 31
-15 23 -3 -3 5 1 9 9 9 8 0 15 -5 15 -11 0 -6 5 -4 10 4 7 11 10 11 10 2 0 -7
5 -10 10 -7 6 4 8 10 5 15 -3 5 -1 11 4 14 5 4 13 1 17 -5 4 -8 3 -9 -4 -5 -8
5 -10 2 -6 -9 7 -19 14 -14 18 11 2 10 8 20 14 22 8 2 10 -3 6 -15 -5 -14 -4
-15 4 -4 6 8 17 11 25 8 11 -4 14 -1 10 9 -4 10 1 13 17 12 13 -2 24 3 26 10
1 7 0 8 -3 2 -2 -5 -9 -10 -14 -10 -5 0 -4 9 3 19 11 18 13 18 26 3 7 -9 11
-12 8 -6 -3 7 1 15 10 18 10 4 13 2 8 -6 -5 -7 -3 -8 5 -4 7 5 10 15 7 23 -4
8 -1 11 5 8 6 -4 17 1 24 11 8 11 15 15 15 10 0 -5 7 -2 16 5 15 12 29 17 65
21 9 1 16 8 16 15 0 10 -4 10 -16 1 -10 -8 -8 -4 3 10 11 12 24 22 30 22 6 0
4 -5 -4 -10 -12 -7 -10 -9 7 -7 17 1 20 5 12 19 -8 16 -7 17 14 9 18 -7 24 -6
24 4 0 8 -4 12 -8 9 -4 -2 -11 1 -15 8 -4 7 -4 10 1 6 4 -4 17 -3 28 3 15 9
18 8 12 -3 -6 -10 -5 -10 4 -2 7 6 13 20 14 32 0 11 5 18 9 16 5 -3 6 -10 3
-15 -3 -5 1 -6 9 -3 9 3 12 12 8 22 -5 15 -4 16 13 2 17 -14 18 -14 7 6 -10
19 -9 21 13 19 17 -2 22 1 18 12 -4 9 2 16 17 20 16 4 18 8 8 14 -10 7 -9 9 5
9 10 0 15 5 12 10 -6 9 8 15 29 11 5 -1 6 4 3 11 -5 15 17 40 27 30 4 -3 4 2
0 12 -5 14 -4 17 4 12 7 -4 12 -1 12 9 0 9 7 27 16 41 13 19 19 22 31 13 11
-10 12 -8 4 14 -7 17 -7 28 0 32 5 4 6 11 3 17 -4 7 -2 8 5 4 6 -4 9 -11 6
-16 -3 -5 -2 -11 3 -14 4 -2 9 7 10 22 1 14 7 29 14 33 6 4 8 14 5 22 -4 12 0
15 21 11 23 -4 24 -3 9 7 -18 10 -18 11 0 25 12 8 13 13 5 14 -7 0 -10 5 -7
10 4 6 11 7 17 4 6 -4 8 -2 4 4 -3 6 1 18 10 26 8 9 12 16 7 16 -4 0 -1 5 7
10 12 8 12 10 -5 10 -18 0 -18 1 2 15 22 15 22 52 0 38 -6 -3 -7 -1 -3 5 3 6
15 9 25 7 14 -3 17 2 13 22 -4 20 -2 24 9 18 12 -7 12 -6 1 7 -10 13 -10 17 0
21 10 4 9 6 -1 6 -11 1 -10 5 5 16 19 15 19 15 -1 9 -19 -5 -19 -5 -3 9 10 8
14 18 10 23 -4 4 0 3 9 -4 14 -11 16 -9 13 18 -2 16 1 30 7 30 6 0 7 -5 3 -12
-4 -7 -3 -8 5 -4 8 6 9 11 2 20 -8 10 -5 18 11 32 13 10 17 12 11 4 -14 -18
-14 -29 -1 -54 7 -12 7 -16 0 -12 -6 3 -13 2 -17 -4 -3 -6 4 -10 17 -11 20 0
21 -1 4 -8 -17 -7 -17 -8 -2 -24 10 -9 12 -17 6 -17 -7 0 -6 -5 2 -14 7 -8 17
-11 22 -8 5 3 6 0 2 -7 -6 -8 -12 -9 -20 -2 -9 8 -13 7 -13 -4 0 -7 3 -14 6
-13 19 2 30 -4 35 -18 6 -14 4 -15 -9 -4 -14 12 -15 11 -4 -13 7 -15 15 -24
20 -22 9 6 6 -15 -4 -33 -5 -7 -3 -12 4 -12 6 0 9 -8 7 -18 -4 -13 1 -18 15
-19 11 -1 25 -7 31 -13 8 -8 6 -9 -6 -5 -13 5 -18 2 -18 -10 0 -13 6 -16 21
-12 17 5 18 3 7 -11 -11 -13 -10 -15 9 -10 18 5 21 2 17 -20 -5 -24 -4 -24 19
-9 19 12 24 13 24 2 0 -8 -4 -12 -8 -9 -4 2 -14 -2 -22 -11 -13 -13 -17 -12
-31 8 -14 19 -15 20 -9 2 4 -11 15 -26 25 -33 10 -7 15 -18 12 -24 -4 -7 -2
-8 5 -4 9 6 9 11 0 22 -15 19 -2 18 17 -1 10 -10 11 -15 3 -15 -8 0 -8 -5 2
-17 8 -9 9 -14 2 -10 -12 8 -12 -10 1 -31 6 -11 11 -11 24 0 12 10 14 10 8 1
-4 -8 -2 -13 5 -13 7 0 9 -3 5 -7 -3 -4 4 -13 16 -20 22 -13 22 -14 1 -8 -12
3 -24 1 -28 -4 -3 -7 0 -8 9 -5 10 4 18 -1 22 -11 4 -9 13 -14 20 -11 9 3 11
0 7 -11 -4 -10 -2 -14 4 -10 6 4 13 -3 16 -14 3 -12 10 -18 15 -15 6 4 8 -3 5
-16 -5 -22 -5 -22 9 -4 14 18 15 17 10 -12 -4 -30 3 -37 30 -33 4 0 10 -10 14
-24 3 -14 10 -22 15 -19 5 3 9 0 9 -5 0 -6 5 -11 11 -11 5 0 8 4 4 9 -3 5 -2
12 3 15 5 3 9 -1 10 -9 1 -8 3 -21 4 -29 1 -8 4 -15 7 -14 23 2 32 -4 27 -18
-3 -9 -2 -12 5 -9 6 4 8 13 5 21 -3 7 0 16 6 20 6 4 8 3 4 -4 -3 -6 -2 -13 4
-17 6 -4 7 -12 3 -18 -4 -7 1 -6 10 2 10 8 20 11 24 7 3 -3 1 -6 -6 -6 -8 0
-6 -7 6 -17 10 -10 14 -14 7 -10 -7 5 -15 2 -20 -5 -4 -7 -4 -10 1 -6 4 4 14
0 22 -8 9 -8 21 -13 28 -10 9 3 12 -3 10 -20 -1 -13 2 -27 8 -31 6 -3 7 -1 3
5 -5 8 1 12 14 12 13 0 19 -4 14 -11 -4 -8 1 -9 16 -4 16 5 20 4 15 -5 -5 -8
2 -10 24 -7 30 5 47 -3 34 -17 -3 -3 -12 -1 -20 5 -8 7 -13 8 -13 1 0 -14 27
-23 48 -15 15 6 15 5 3 -11 -8 -9 -10 -16 -5 -15 5 1 16 1 24 0 13 -1 13 -2 0
-11 -8 -5 -10 -10 -5 -10 6 0 16 5 23 12 9 9 12 9 12 0 0 -6 7 -9 15 -6 11 4
13 2 10 -9 -8 -18 24 -32 39 -17 8 8 6 9 -6 5 -10 -4 -18 -3 -18 3 0 6 8 9 18
8 9 -2 17 -9 17 -16 0 -7 6 -15 13 -17 6 -3 12 0 12 7 0 7 6 8 18 1 13 -7 23
-6 32 2 10 9 11 9 6 -1 -4 -6 -2 -12 4 -12 6 0 9 -4 6 -8 -2 -4 5 -14 16 -21
18 -11 20 -11 15 3 -4 10 -1 13 8 10 7 -3 16 -13 19 -21 6 -14 8 -14 25 1 13
12 21 14 26 6 4 -6 14 -9 22 -6 8 4 11 2 7 -5 -4 -8 1 -9 17 -5 20 6 21 5 7
-4 -10 -6 -18 -16 -18 -23 0 -9 2 -9 8 0 9 14 51 14 70 0 7 -6 12 -6 12 0 0 5
-6 16 -12 23 -11 13 -11 13 2 2 7 -6 23 -12 35 -12 16 0 17 -2 5 -10 -8 -5
-10 -10 -5 -10 6 0 16 5 23 12 9 9 12 9 12 -1 0 -11 3 -11 15 -1 8 7 15 8 15
3 0 -5 9 -9 19 -9 15 0 17 3 9 13 -8 10 -7 12 6 7 9 -3 16 -10 16 -15 0 -10
29 -7 48 4 6 5 12 4 12 -2 0 -6 7 -8 15 -5 8 4 13 10 10 14 -3 5 -1 12 5 15 6
4 9 1 8 -5 -2 -7 5 -14 16 -15 14 -3 17 1 13 21 -3 16 -1 22 5 16 5 -5 10 -19
11 -31 1 -11 5 -21 10 -21 4 0 7 6 6 12 -3 25 1 38 12 38 8 0 8 -5 -1 -15 -10
-12 -9 -15 8 -15 11 0 23 -6 25 -12 4 -10 6 -9 6 1 1 10 4 11 15 2 11 -9 16
-9 22 0 4 7 3 9 -4 5 -6 -3 -13 -2 -17 4 -4 6 -10 8 -15 5 -5 -3 -12 0 -16 6
-4 7 -3 9 4 5 6 -3 13 -2 17 4 3 5 12 10 18 10 7 0 6 -4 -3 -10 -8 -5 -10 -10
-5 -10 18 0 38 17 32 28 -4 5 -18 8 -32 7 -14 -2 -25 1 -25 7 0 6 6 8 13 5 8
-3 20 -1 28 4 11 8 9 9 -6 7 -11 -2 -19 2 -18 8 4 19 -36 4 -48 -17 -5 -11
-15 -19 -22 -19 -7 0 -8 3 -2 8 6 4 19 17 29 30 15 18 16 22 4 22 -8 0 -20
-10 -25 -22 -10 -22 -11 -22 -9 4 0 14 4 24 9 21 4 -2 7 1 7 7 0 7 -7 10 -15
7 -16 -7 -30 9 -15 16 6 3 5 4 -2 3 -7 -2 -13 -8 -13 -13 0 -24 -12 -22 -24 3
-10 24 -10 26 6 20 16 -5 15 -4 -1 9 -11 8 -16 15 -12 15 5 0 3 6 -3 13 -6 8
-8 18 -4 23 4 5 1 3 -7 -3 -8 -7 -18 -13 -22 -13 -11 0 -6 23 7 32 6 5 6 8 -2
8 -7 0 -17 -8 -23 -17 -9 -16 -10 -15 -5 4 5 19 3 22 -12 17 -13 -4 -15 -3 -5
4 12 8 11 15 -2 41 -19 35 -33 43 -16 9 11 -22 11 -22 -5 -3 -8 11 -13 26 -10
33 3 8 -3 16 -15 19 -11 3 -20 12 -20 20 0 9 -5 11 -12 7 -8 -5 -7 0 2 11 14
17 13 17 -9 10 -16 -5 -21 -4 -17 4 4 6 2 11 -5 11 -6 0 -9 8 -6 20 5 20 -28
54 -44 45 -9 -6 -6 16 5 34 7 10 3 12 -14 6 -15 -5 -20 -3 -16 3 3 6 2 14 -4
17 -8 5 -7 11 1 21 10 12 9 13 -6 8 -12 -5 -16 -4 -12 3 9 15 -3 44 -14 37 -6
-3 -8 6 -5 20 3 18 1 24 -6 20 -8 -5 -9 -1 -4 11 5 15 4 16 -9 5 -13 -11 -14
-10 -9 5 4 9 2 20 -5 24 -11 7 -21 38 -23 69 -1 6 -7 12 -15 12 -14 0 -15 3
-15 62 0 28 -5 39 -19 43 -11 4 -19 11 -19 17 0 7 5 6 14 -1 11 -9 16 -9 22 0
4 7 3 10 -2 7 -14 -8 -48 28 -34 37 8 5 6 13 -7 27 -18 21 -18 21 7 8 22 -12
24 -11 13 2 -7 8 -9 19 -5 23 4 5 1 5 -7 0 -10 -6 -12 -2 -7 13 5 15 2 21 -10
24 -10 2 -18 13 -19 25 -1 16 2 20 10 13 13 -11 25 -3 25 14 0 8 -3 8 -8 0 -5
-7 -14 -5 -27 9 -11 11 -15 17 -9 14 7 -4 17 0 24 8 11 13 10 14 -3 9 -11 -4
-16 0 -16 13 0 10 -1 32 -3 50 -3 19 0 29 6 26 6 -4 6 1 2 13 -17 41 -16 56 2
50 14 -5 13 -3 -2 9 -15 11 -16 15 -5 16 8 0 6 4 -6 9 l-20 9 20 0 c17 1 17 3
5 11 -8 5 -10 10 -4 10 11 0 11 71 -1 90 -5 8 -4 11 3 6 6 -3 13 -2 17 4 3 5
-2 10 -12 11 -10 0 -13 3 -5 6 6 2 12 9 12 14 0 6 -4 7 -10 4 -7 -4 -7 3 0 20
5 14 7 24 2 22 -4 -3 -7 10 -7 28 0 23 3 30 11 24 7 -5 11 -3 11 6 0 8 -9 17
-18 20 -15 5 -16 9 -6 20 10 12 14 12 23 -1 10 -13 12 -13 18 1 3 9 2 13 -4
10 -6 -3 -10 -2 -10 4 0 5 4 12 9 16 12 7 10 45 -2 45 -4 0 -5 5 -2 10 4 6 10
8 15 5 4 -3 6 9 3 26 -3 24 -1 29 9 23 7 -4 4 3 -7 16 -11 13 -14 20 -8 16 7
-4 21 -2 30 4 16 11 16 11 1 6 -10 -3 -20 -1 -23 4 -4 6 3 10 15 10 17 0 19 3
12 17 -6 9 -6 24 -2 32 16 30 25 58 29 86 1 6 6 3 12 -5 9 -13 10 -13 8 0 -2
26 13 60 24 53 6 -3 7 -1 3 6 -6 8 -12 9 -20 2 -9 -8 -13 -7 -13 4 0 7 3 14 6
13 18 -2 23 3 15 15 -5 7 -1 4 10 -8 l19 -20 -7 23 c-6 17 -3 22 11 23 16 0
16 1 -2 9 -14 6 -16 9 -5 10 8 2 19 2 23 1 5 -1 6 3 2 9 -3 6 -11 8 -16 5 -5
-3 -6 1 -3 9 3 9 10 14 14 11 4 -3 13 2 19 9 9 11 9 16 0 22 -8 5 -9 3 -4 -6
5 -9 4 -11 -4 -6 -6 4 -9 12 -5 17 3 5 10 7 15 3 6 -3 9 2 7 12 -2 13 2 18 14
16 13 -2 16 2 11 14 -4 11 -3 15 5 10 6 -3 14 -1 18 5 4 8 3 9 -4 5 -7 -4 -12
-1 -12 9 0 10 5 13 12 9 8 -5 9 -2 4 11 -5 15 -4 16 9 5 18 -15 20 0 3 19 -11
12 -10 13 6 7 13 -4 17 -2 13 7 -3 7 8 28 23 45 27 31 49 44 34 20 -4 -7 -3
-8 5 -4 9 6 9 11 -1 24 -10 12 -10 14 0 8 11 -7 17 5 13 28 -1 5 11 1 26 -9
20 -13 24 -14 16 -3 -7 8 -9 19 -5 23 4 5 0 5 -8 1 -8 -4 -7 -1 3 7 10 9 25
24 33 34 13 17 14 17 8 -2 -4 -15 -4 -17 4 -6 6 8 8 19 6 26 -3 6 3 18 13 26
17 13 17 13 4 -6 -8 -11 2 -3 22 18 21 21 37 35 37 31 0 -3 7 -1 15 6 8 7 13
16 10 20 -9 14 24 39 45 35 23 -4 36 10 19 21 -8 5 -9 3 -4 -6 5 -9 4 -11 -4
-6 -8 6 -9 12 -2 20 6 7 8 15 5 19 -3 3 4 3 17 0 20 -6 21 -5 8 9 -7 9 -26 15
-41 14 -16 -1 -28 1 -28 5 0 9 -71 2 -79 -8 -3 -3 4 -4 15 -1 16 4 21 1 19
-11 -1 -9 4 -23 12 -33 11 -12 11 -18 2 -24 -7 -4 -10 -3 -6 3 4 6 1 16 -7 22
-10 8 -16 8 -25 -3 -10 -11 -8 -17 6 -26 16 -10 16 -11 1 -6 -10 3 -18 1 -18
-4 0 -6 -5 -10 -11 -10 -5 0 -7 5 -3 12 5 8 2 9 -9 5 -10 -3 -17 -2 -17 3 0 5
10 12 21 15 17 6 19 9 8 16 -10 6 -11 9 -1 10 27 3 31 4 38 12 4 4 -2 7 -13 7
-22 0 -47 -23 -36 -33 3 -4 1 -7 -5 -7 -7 0 -12 5 -12 11 0 5 -4 7 -10 4 -6
-3 -7 1 -4 9 3 9 10 14 14 11 5 -3 12 -1 15 5 4 6 1 9 -7 8 -7 -2 -12 3 -11
10 2 6 -2 12 -8 12 -6 0 -9 -7 -6 -15 8 -19 -12 -30 -26 -15 -7 7 -7 10 -2 7
6 -3 12 4 12 16 1 12 -1 17 -5 12 -8 -12 -22 -13 -39 -2 -6 4 -14 3 -17 -2 -8
-12 4 -19 26 -16 11 2 15 -2 11 -12 -3 -8 -9 -10 -12 -5 -3 5 -14 8 -24 6 -9
-1 -15 2 -11 7 3 5 0 9 -7 9 -8 0 -7 5 2 18 13 15 12 16 -3 3 -10 -7 -18 -10
-18 -6 0 4 -6 3 -12 -2 -25 -20 -58 -22 -59 -5 0 12 -3 10 -9 -5 -5 -13 -12
-23 -15 -23 -4 0 -3 5 0 10 3 6 0 11 -7 11 -28 3 -53 -4 -60 -15 -5 -7 -8 -4
-8 8 0 20 0 20 -16 0 -8 -10 -13 -14 -10 -9 2 6 -4 12 -15 12 -18 2 -19 0 -7
-14 11 -15 11 -16 -6 -10 -14 5 -17 3 -13 -8 4 -8 1 -17 -5 -21 -7 -4 -8 -3
-4 4 9 15 -6 16 -21 1 -8 -8 -13 -7 -18 2 -5 7 -4 10 2 6 5 -3 10 0 10 8 0 11
-3 12 -14 3 -8 -6 -11 -18 -8 -27 3 -9 -4 -5 -15 9 -15 19 -18 20 -13 6 4 -13
3 -17 -5 -12 -6 3 -14 1 -18 -5 -4 -8 -3 -9 4 -5 7 4 12 2 12 -4 0 -6 5 -8 12
-4 6 4 8 3 5 -4 -4 -5 -16 -8 -27 -5 -14 4 -20 1 -18 -8 2 -10 -6 -13 -25 -12
-15 1 -26 -1 -23 -5 2 -4 -4 -8 -14 -8 -10 0 -17 3 -15 6 8 13 -32 28 -46 18
-11 -8 -11 -9 3 -5 9 3 19 -1 22 -9 3 -8 2 -12 -3 -9 -6 3 -15 -3 -21 -12 -11
-17 -11 -17 -6 0 3 11 0 17 -10 17 -9 0 -12 -5 -8 -12 6 -10 5 -10 -7 -1 -13
10 -19 10 -35 -2 -14 -11 -15 -14 -3 -9 10 3 20 1 23 -4 3 -6 -7 -9 -23 -8
-17 1 -28 -2 -25 -6 11 -18 -7 -28 -29 -16 -19 10 -20 9 -9 -4 11 -13 10 -16
-5 -14 -12 0 -17 -5 -17 -17 2 -17 1 -17 -17 -1 -18 16 -19 16 -13 1 3 -10 1
-17 -5 -17 -6 0 -11 6 -12 13 0 6 -4 2 -10 -11 -5 -13 -13 -21 -18 -18 -5 3
-14 -1 -21 -9 -7 -8 -17 -12 -23 -8 -5 3 -7 1 -4 -4 7 -10 -8 -28 -28 -35 -5
-1 -9 -7 -7 -11 1 -5 -7 -11 -18 -14 -23 -6 -26 -19 -7 -26 11 -5 -18 -11 -37
-8 -5 1 -6 -6 -2 -15 5 -14 4 -15 -8 -5 -13 11 -15 9 -11 -9 3 -18 2 -20 -10
-10 -10 8 -15 8 -21 -1 -4 -8 -3 -9 4 -5 7 4 12 2 12 -3 0 -6 -6 -11 -14 -11
-8 0 -17 -7 -20 -16 -6 -15 -4 -15 11 -3 16 13 17 12 4 -4 -8 -10 -20 -16 -27
-13 -7 3 -16 0 -20 -6 -4 -6 -3 -8 3 -5 6 4 13 0 16 -8 4 -10 1 -12 -11 -8 -9
3 -14 2 -9 -2 9 -11 -22 -45 -41 -45 -8 0 -12 -6 -9 -14 7 -18 -28 -50 -45
-41 -7 3 -4 -1 6 -9 19 -16 19 -16 -4 -16 -13 0 -21 -3 -17 -6 3 -4 0 -12 -7
-20 -7 -7 -12 -24 -11 -38 2 -15 -1 -24 -6 -20 -17 10 -31 -7 -18 -22 9 -11 9
-14 -1 -14 -8 0 -10 -3 -7 -7 4 -3 -1 -15 -10 -25 -16 -18 -23 -35 -25 -65 -1
-7 -5 -10 -10 -7 -18 11 -28 -7 -16 -29 9 -19 9 -20 -3 -10 -12 9 -14 5 -15
-28 0 -34 1 -37 15 -26 9 6 8 2 -3 -11 -11 -12 -25 -21 -32 -18 -12 5 -13 -18
-1 -30 10 -11 8 -24 -4 -24 -5 0 -7 5 -3 12 4 7 3 8 -5 4 -7 -5 -8 -13 -2 -23
6 -12 4 -21 -8 -32 -9 -9 -11 -12 -4 -7 8 5 16 6 20 2 3 -3 1 -6 -7 -6 -9 0
-10 -4 -2 -13 7 -8 7 -18 2 -27 -9 -13 -10 -13 -10 0 0 13 -1 13 -10 0 -7 -10
-10 -11 -11 -2 -4 33 -6 37 -16 35 -7 -2 -10 6 -8 17 2 11 -3 27 -11 35 -12
11 -12 15 -2 15 10 0 10 2 -1 9 -12 8 -13 14 -3 35 10 24 10 26 -10 26 -20 0
-20 1 -5 13 13 9 14 16 6 27 -9 13 -10 12 -5 -2 3 -12 0 -18 -9 -18 -9 0 -12
6 -8 17 4 11 3 14 -5 9 -8 -5 -9 -1 -3 16 9 24 -24 92 -40 82 -5 -3 -9 0 -9 5
0 6 6 11 13 11 8 0 8 3 -2 9 -8 5 -11 16 -8 24 7 20 -3 29 -18 17 -8 -6 -12
-6 -13 3 0 6 -4 23 -8 36 -5 19 -4 22 6 16 9 -5 11 -4 6 3 -4 7 -14 12 -22 12
-8 0 -12 -4 -9 -10 10 -16 -1 -11 -16 7 -10 11 -10 14 -1 9 6 -4 12 -2 12 3 0
6 -5 11 -11 11 -8 0 -7 6 2 17 10 11 10 14 2 9 -8 -4 -13 -2 -13 4 0 6 -4 8
-10 5 -5 -3 -10 -1 -10 4 0 6 5 11 12 11 6 0 8 3 5 6 -4 4 -12 2 -20 -4 -10
-8 -13 -6 -14 9 -1 12 3 17 9 13 6 -4 8 -2 4 4 -3 6 -15 9 -26 7 -12 -2 -18 0
-15 5 3 4 2 10 -2 13 -5 2 -3 2 4 1 7 -2 15 2 19 8 4 7 3 8 -4 4 -7 -4 -12 -2
-12 4 0 6 -4 8 -10 5 -5 -3 -10 -2 -10 4 0 5 -9 12 -19 16 -11 3 -18 12 -15
20 3 7 0 16 -7 21 -8 5 -10 3 -4 -6 5 -9 4 -11 -3 -6 -7 4 -12 15 -12 25 0 10
-7 24 -15 31 -8 7 -12 17 -8 23 3 6 1 7 -6 3 -9 -6 -9 -11 0 -22 7 -8 7 -14 1
-14 -13 0 -24 29 -15 42 3 6 1 8 -4 5 -6 -4 -16 0 -23 9 -7 8 -19 13 -27 10
-9 -4 -11 -1 -7 6 5 8 2 9 -10 5 -10 -4 -19 -1 -22 8 -4 8 -10 12 -15 9 -5 -3
-6 2 -3 10 3 9 1 16 -6 16 -6 0 -8 5 -4 13 6 9 5 9 -7 0 -10 -8 -19 -9 -29 -1
-12 8 -12 9 3 4 22 -7 22 7 0 25 -11 10 -14 10 -9 2 4 -7 2 -13 -3 -13 -11 0
-15 12 -12 40 1 8 -5 4 -12 -9 -12 -20 -15 -21 -20 -7 -4 10 -3 15 3 11 6 -3
10 -2 10 3 0 6 -7 13 -16 16 -23 9 -26 8 -18 -6 6 -10 5 -10 -8 -1 -8 7 -17
12 -19 10 -2 -1 1 3 8 9 10 8 6 14 -15 23 -26 11 -26 11 -7 -5 18 -15 18 -16
2 -10 -10 3 -23 6 -28 6 -6 0 -7 5 -3 12 5 8 2 9 -10 5 -12 -5 -16 -2 -14 10
2 9 -3 18 -9 20 -7 3 -13 0 -13 -7 0 -6 5 -8 12 -4 7 5 8 3 3 -6 -5 -9 -14 -4
-31 16 -18 21 -22 24 -17 9 l6 -20 -20 20 c-14 13 -16 22 -9 27 7 5 7 8 0 8
-5 0 -16 -6 -23 -12 -11 -11 -13 -10 -8 5 5 13 3 16 -5 10 -7 -4 -21 -8 -30
-8 -15 -1 -15 1 -5 13 10 13 9 14 -10 4 -28 -15 -36 -15 -27 0 5 8 2 9 -10 5
-14 -5 -17 -3 -12 8 3 8 2 14 -2 14 -4 -1 -9 0 -12 1 -18 7 -50 5 -50 -3 0 -5
-6 -5 -13 2 -10 7 -17 7 -24 0 -8 -8 -13 -7 -18 2 -5 8 -4 10 3 5 7 -4 12 -2
12 5 0 7 -10 9 -30 6 -19 -4 -34 -1 -44 8 -17 17 -30 20 -21 5 3 -5 3 -10 -2
-11 -4 0 -16 -2 -25 -4 -10 -2 -21 2 -25 7 -3 6 -2 8 4 5 5 -3 10 1 10 9 0 10
-4 11 -10 5 -7 -7 -16 -7 -28 0 -15 7 -17 6 -13 -6 4 -8 10 -15 15 -15 5 0 9
-5 9 -12 0 -7 -6 -6 -17 4 -10 8 -28 13 -41 12 -17 -1 -22 3 -17 14 4 12 0 11
-16 -4 -12 -10 -19 -14 -16 -8 4 7 0 15 -9 18 -8 3 -13 2 -10 -3 3 -5 -1 -11
-9 -15 -8 -3 -17 0 -21 6 -5 7 -2 8 6 3 9 -5 11 -4 6 4 -6 8 -12 9 -20 2 -7
-6 -16 -8 -19 -4 -4 3 -7 1 -7 -5 0 -7 -11 -11 -25 -10 -14 1 -25 5 -25 8 0 4
-15 6 -34 6 -28 -1 -32 -3 -23 -15 9 -12 9 -13 -1 -7 -7 4 -20 2 -28 -5 -13
-10 -12 -14 3 -33 16 -18 16 -19 1 -7 -9 7 -22 10 -29 6 -8 -6 -8 -2 0 12 8
17 6 22 -14 31 -27 13 -38 3 -29 -25 6 -16 5 -16 -9 2 -15 18 -16 19 -17 2 0
-10 -4 -16 -10 -12 -5 3 -7 13 -4 23 5 13 4 14 -4 3 -6 -8 -19 -12 -32 -8 -16
4 -19 2 -11 -7 8 -10 3 -12 -23 -11 -19 0 -32 -3 -30 -7 3 -4 0 -8 -6 -8 -6 0
-8 -6 -4 -12 4 -7 -2 -5 -14 6 -19 17 -22 17 -28 2 -3 -9 -11 -13 -16 -10 -6
4 -14 0 -19 -7 -7 -11 -9 -11 -9 -1 0 7 -5 10 -10 7 -6 -4 -7 -11 -4 -17 5 -8
1 -9 -11 -4 -16 6 -16 4 -4 -11 9 -11 10 -14 2 -9 -26 15 -52 15 -46 0 3 -8
-1 -14 -10 -14 -8 0 -18 -7 -21 -16 -5 -14 -9 -14 -23 -3 -12 10 -14 10 -9 2
9 -16 -6 -17 -20 -3 -7 7 -10 4 -10 -12 1 -16 -4 -23 -16 -22 -10 1 -18 -2
-18 -7 0 -5 -8 -5 -17 -2 -16 6 -16 5 -4 -10 16 -20 8 -22 -22 -5 -20 10 -21
10 -8 -5 12 -15 11 -17 -6 -17 -27 0 -35 -10 -21 -27 9 -11 7 -12 -15 -4 -20
8 -26 7 -24 -1 1 -7 -4 -13 -10 -14 -7 -1 -15 -2 -18 -3 -3 0 0 -11 6 -23 12
-22 11 -22 -6 -8 -17 14 -18 13 -13 -8 5 -19 4 -21 -8 -11 -7 6 -11 16 -7 23
4 7 1 7 -7 -1 -11 -10 -11 -15 1 -29 9 -12 10 -15 2 -10 -8 4 -13 1 -13 -9 0
-9 -5 -13 -10 -10 -6 4 -8 10 -5 15 3 5 1 11 -4 14 -6 4 -8 -6 -6 -24 2 -16 0
-32 -4 -35 -5 -2 -8 1 -7 8 1 13 -13 22 -16 10 0 -5 -8 -13 -16 -19 -8 -6 -12
-16 -8 -22 4 -7 -1 -10 -12 -7 -13 2 -19 -2 -18 -13 0 -9 -4 -17 -11 -17 -6 0
-15 -4 -20 -9 -5 -5 -2 -6 7 -2 8 4 4 -2 -10 -14 -18 -16 -20 -20 -7 -16 11 3
16 2 12 -4 -3 -6 -13 -10 -21 -10 -10 0 -12 -5 -8 -12 6 -10 5 -10 -8 0 -13
10 -15 9 -13 -12 2 -17 -1 -23 -10 -20 -7 3 -16 1 -20 -5 -3 -6 0 -11 7 -12 7
0 2 -5 -11 -10 -18 -7 -21 -12 -12 -23 11 -13 5 -26 -11 -26 -5 0 -6 5 -2 12
4 7 3 8 -4 4 -9 -5 -9 -13 -1 -27 9 -17 7 -21 -11 -26 -16 -4 -18 -8 -8 -14
10 -7 10 -9 1 -9 -7 0 -13 -7 -13 -15 0 -9 -7 -18 -15 -21 -8 -4 -12 -10 -9
-15 3 -5 11 -6 17 -2 8 5 8 2 0 -9 -7 -8 -9 -18 -5 -22 4 -4 3 -7 -3 -6 -26 6
-37 -1 -32 -20 3 -13 1 -18 -6 -13 -6 4 -8 0 -4 -10 4 -10 1 -17 -5 -17 -6 0
-8 -3 -5 -7 4 -3 17 2 29 13 12 10 18 14 15 7 -4 -6 -3 -14 3 -18 5 -3 10 -1
10 4 0 6 5 11 11 11 5 0 7 -5 3 -12 -5 -8 -2 -9 11 -4 18 7 18 6 1 -13 -15
-17 -16 -23 -6 -35 6 -9 10 -21 7 -28 -3 -8 -6 -6 -6 5 -1 14 -5 16 -20 8 -14
-8 -22 -7 -32 6 -8 9 -9 14 -3 10 6 -3 11 0 11 8 0 10 -4 12 -12 5 -7 -6 -15
-6 -22 1 -8 8 -13 7 -18 -2 -5 -7 -4 -10 3 -5 6 3 13 2 17 -4 3 -5 1 -10 -5
-10 -7 0 -9 -8 -5 -20 4 -11 3 -20 -2 -19 -4 1 -15 1 -23 0 -13 -1 -13 -3 -1
-10 11 -7 12 -13 4 -23 -6 -7 -9 -21 -8 -30 2 -10 -1 -18 -6 -18 -6 0 -7 -5
-3 -12 4 -7 3 -8 -5 -4 -6 4 -18 2 -26 -4 -17 -15 -20 -30 -4 -30 5 0 8 4 4 9
-3 5 0 13 6 17 7 4 9 3 5 -4 -3 -5 0 -13 6 -15 10 -4 10 -6 0 -6 -7 -1 -10 -6
-6 -13 4 -7 3 -8 -4 -4 -16 10 -15 -7 1 -23 10 -10 8 -11 -7 -5 -15 6 -17 4
-10 -7 12 -18 13 -59 1 -52 -5 3 -7 13 -4 23 3 12 -2 20 -15 23 -11 3 -17 10
-13 16 3 6 11 9 16 6 5 -4 9 -1 9 4 0 6 -4 11 -9 11 -5 0 -7 10 -4 23 3 16 2
18 -5 9 -7 -11 -10 -11 -15 3 -5 11 -3 14 5 9 8 -5 9 -2 4 11 -6 16 -4 16 10
4 16 -13 16 -12 0 19 -9 18 -21 30 -26 27 -10 -6 -8 14 3 32 6 9 3 11 -10 6
-15 -6 -16 -4 -5 9 10 13 10 18 1 24 -8 5 -9 3 -4 -7 8 -12 6 -12 -8 0 -18 14
-23 26 -8 17 5 -3 12 1 15 10 8 22 8 24 -8 24 -8 0 -13 10 -12 23 1 18 -4 22
-24 19 -14 -1 -20 1 -14 5 6 5 13 28 16 51 4 44 4 44 -14 22 -21 -25 -23 -19
-6 13 10 20 10 21 -5 8 -15 -12 -17 -11 -17 13 0 14 5 26 12 26 6 0 8 3 5 6
-4 4 -15 1 -24 -7 -10 -7 -15 -9 -10 -4 4 4 -3 19 -15 32 -15 16 -17 22 -7 18
10 -4 16 0 16 10 0 8 -2 13 -5 10 -7 -7 -32 23 -32 39 0 9 -5 16 -11 16 -6 0
-8 9 -4 23 7 22 7 22 -9 2 -9 -11 -16 -15 -15 -10 4 19 -13 45 -25 38 -6 -4
-5 0 2 9 11 14 11 16 0 14 -7 -1 -19 -6 -27 -10 -9 -6 -12 -5 -7 2 3 6 -1 18
-10 26 -8 9 -11 16 -5 16 5 0 14 -8 20 -17 9 -16 10 -16 8 4 0 12 -5 19 -9 17
-4 -3 -8 0 -8 6 0 6 -4 8 -10 5 -5 -3 -10 -2 -10 4 0 5 6 12 13 14 6 3 -1 4
-18 3 -16 -2 -24 -1 -17 1 7 3 10 9 6 14 -3 5 -10 6 -16 3 -7 -4 -8 -2 -4 4 6
10 -4 16 -25 14 -3 -1 -4 10 -1 24 4 20 1 23 -13 17 -14 -5 -16 -3 -10 8 8 12
6 12 -9 0 -15 -12 -17 -12 -14 0 2 8 -2 13 -9 12 -7 -2 -10 4 -7 12 4 10 0 13
-15 10 -24 -4 -37 10 -20 21 8 4 9 3 5 -4 -5 -8 -1 -10 10 -5 11 4 13 8 6 11
-7 2 -9 9 -5 15 4 8 1 8 -9 -1 -12 -10 -17 -10 -27 1 -6 8 -8 17 -4 21 4 4 0
4 -10 0 -9 -3 -14 -11 -10 -18 4 -7 2 -7 -7 1 -11 10 -11 15 1 29 13 16 12 16
-8 5 -16 -8 -23 -8 -23 -1 0 6 -6 8 -12 4 -7 -4 -4 3 7 17 15 18 16 20 3 10
-14 -10 -18 -11 -18 -1 0 10 -3 10 -15 0 -9 -7 -18 -10 -22 -6 -3 3 0 6 8 6
27 1 -28 26 -64 29 -5 1 -5 6 -2 11 3 6 1 10 -4 10 -6 0 -11 -5 -11 -11 0 -7
-9 0 -21 15 -11 14 -17 30 -14 36 3 5 1 10 -4 10 -6 0 -11 -8 -11 -17 0 -15
-2 -16 -9 -3 -6 8 -7 18 -5 22 3 4 -2 5 -10 2 -9 -3 -12 -12 -8 -22 5 -14 4
-15 -10 -2 -13 12 -13 17 -1 28 7 7 13 15 13 17 0 6 -24 0 -39 -9 -9 -6 -12
-5 -7 2 7 12 -12 20 -36 14 -10 -2 -15 -9 -11 -16 3 -6 -2 -3 -13 6 -10 9 -23
16 -29 16 -5 0 -16 10 -22 23 -7 13 -13 18 -13 10 0 -11 -3 -11 -15 -1 -8 7
-15 9 -15 4 0 -5 -5 -2 -11 6 -9 13 -10 12 -5 -3 3 -11 2 -16 -4 -12 -6 3 -10
0 -10 -7 0 -10 -2 -10 -9 1 -5 7 -14 10 -20 7 -6 -4 -11 -4 -10 1 1 4 1 19 -1
33 -1 23 -2 23 -10 5 -6 -13 -9 -15 -9 -5 -1 13 -2 13 -11 0 -5 -8 -10 -10
-10 -4 0 7 -7 15 -16 18 -14 5 -15 4 -5 -8 10 -12 9 -14 -8 -9 -12 3 -18 9
-15 14 3 5 0 9 -5 9 -6 0 -11 -7 -11 -15 0 -8 -5 -15 -11 -15 -5 0 -8 4 -4 9
3 5 1 12 -5 16 -5 3 -10 1 -10 -4 0 -6 -11 -10 -24 -9 -17 2 -22 6 -16 13 6 7
2 11 -10 11 -10 0 -16 -4 -14 -8 3 -4 -1 -8 -9 -8 -8 0 -18 7 -21 16 -3 8 -11
12 -17 8 -9 -5 -7 -11 6 -20 10 -8 16 -16 14 -19 -3 -3 -15 4 -26 14 -19 18
-22 18 -39 3 -17 -16 -17 -16 -5 0 9 12 9 18 0 24 -7 4 -10 3 -7 -2z m-88 -32
c3 -5 -1 -9 -9 -9 -8 0 -12 4 -9 9 3 4 7 8 9 8 2 0 6 -4 9 -8z m2630 -15 c-3
-8 2 -14 11 -14 8 0 15 4 15 9 0 5 11 1 25 -8 l25 -17 -40 -29 c-22 -16 -40
-36 -40 -44 0 -10 6 -8 20 6 24 24 40 18 39 -13 l-1 -22 -6 22 c-6 18 -10 20
-22 12 -11 -8 -12 -12 -2 -16 6 -2 12 -9 12 -15 0 -6 -6 -6 -15 2 -18 15 -20
-1 -2 -19 10 -11 9 -13 -1 -7 -6 4 -19 20 -27 36 -12 23 -12 29 -1 33 15 6 13
51 -4 72 -10 12 -8 15 17 24 1 1 0 -5 -3 -12z m-109 -15 c-3 -3 -11 0 -18 7
-9 10 -8 11 6 5 10 -3 15 -9 12 -12z m205 14 c0 -3 -4 -8 -10 -11 -5 -3 -10
-1 -10 4 0 6 5 11 10 11 6 0 10 -2 10 -4z m-140 -26 c0 -5 -2 -10 -4 -10 -3 0
-8 5 -11 10 -3 6 -1 10 4 10 6 0 11 -4 11 -10z m148 -27 c-6 -7 -14 -11 -18
-8 -5 3 -10 -1 -13 -7 -2 -7 -7 -10 -11 -7 -4 4 3 18 16 31 23 23 47 16 26 -9z
m401 14 c0 -9 -2 -8 -6 1 -2 6 -10 9 -15 6 -7 -4 -8 -2 -4 5 9 13 26 5 25 -12z
m2305 8 c11 -8 15 -15 9 -15 -7 0 -15 5 -18 10 -4 6 -11 8 -16 5 -5 -4 -9 -1
-9 4 0 15 11 13 34 -4z m-2677 -25 c-1 -11 -5 -20 -9 -20 -10 0 -10 4 -2 24 8
22 13 20 11 -4z m-147 -11 c0 -9 -31 -21 -38 -14 -3 3 0 5 7 5 7 0 10 4 7 8
-3 5 1 9 9 9 8 0 15 -4 15 -8z m127 -38 c-1 -12 -6 -17 -16 -13 -10 4 -11 7
-3 10 7 2 12 8 12 13 0 6 -9 5 -22 -1 -22 -11 -22 -10 -4 4 22 18 35 13 33
-13z m2737 20 c3 -5 -2 -15 -12 -22 -15 -12 -16 -12 -5 2 7 9 10 19 6 22 -3 4
-4 7 0 7 3 0 8 -4 11 -9z m79 -4 c-2 -4 -5 -7 -8 -7 -3 0 -9 0 -15 0 -5 0 -10
4 -10 9 0 5 8 8 18 7 9 -2 16 -6 15 -9z m-45 -34 c-12 -15 -28 -17 -28 -3 0 6
6 9 13 8 7 -2 11 5 9 17 -2 16 -1 17 7 5 7 -9 6 -19 -1 -27z m-5508 17 c0 -5
-5 -10 -11 -10 -5 0 -7 5 -4 10 3 6 8 10 11 10 2 0 4 -4 4 -10z m2615 -40 c3
-5 1 -10 -4 -10 -6 0 -11 5 -11 10 0 6 2 10 4 10 3 0 8 -4 11 -10z m2103 -45
c-3 -3 -9 2 -12 12 -6 14 -5 15 5 6 7 -7 10 -15 7 -18z m-68 -25 c-12 -8 -12
-10 -1 -10 8 0 12 -3 8 -6 -9 -9 -28 6 -22 17 4 5 12 9 18 9 7 0 6 -4 -3 -10z
m-33 -22 c2 -17 0 -19 -7 -8 -5 8 -6 18 -4 22 8 12 10 10 11 -14z m-25 -15
c-6 -2 -9 -10 -5 -16 3 -7 3 -9 -2 -5 -4 4 -14 3 -21 -3 -8 -7 -14 -6 -20 2
-4 7 -3 9 3 6 6 -4 16 0 23 8 7 8 18 15 24 14 7 0 6 -2 -2 -6z m-2633 -6 c-2
-1 -11 -8 -21 -15 -12 -10 -18 -10 -24 -1 -4 7 -3 9 4 5 6 -3 13 -2 17 4 3 5
11 10 17 10 6 0 9 -1 7 -3z m1601 -43 c0 -8 -19 -13 -24 -6 -3 5 1 9 9 9 8 0
15 -2 15 -3z m71 -37 c-10 -9 -11 -8 -5 6 3 10 9 15 12 12 3 -3 0 -11 -7 -18z
m-55 -132 c-1 -8 -5 -17 -8 -21 -5 -4 -4 16 1 34 3 9 9 -1 7 -13z m78 -21 c3
-8 2 -12 -4 -9 -6 3 -10 10 -10 16 0 14 7 11 14 -7z m-3343 -47 c-10 -9 -11
-8 -5 6 3 10 9 15 12 12 3 -3 0 -11 -7 -18z m3349 19 c0 -3 -4 -8 -10 -11 -5
-3 -10 -1 -10 4 0 6 5 11 10 11 6 0 10 -2 10 -4z m-1464 -28 c4 -7 4 -10 -1
-6 -4 4 -15 2 -24 -5 -14 -11 -14 -10 -2 6 16 20 18 21 27 5z m1319 -18 c3 -5
1 -10 -4 -10 -6 0 -11 5 -11 10 0 6 2 10 4 10 3 0 8 -4 11 -10z m-775 -20 c0
-5 -5 -10 -11 -10 -5 0 -7 5 -4 10 3 6 8 10 11 10 2 0 4 -4 4 -10z m-120 -14
c0 -3 -4 -8 -10 -11 -5 -3 -10 -1 -10 4 0 6 5 11 10 11 6 0 10 -2 10 -4z
m1647 -21 c0 -8 -4 -12 -9 -9 -5 3 -6 10 -3 15 9 13 12 11 12 -6z m-3907 -6
c0 -5 5 -7 12 -3 7 4 8 3 4 -5 -6 -9 -11 -9 -22 0 -17 14 -18 19 -4 19 6 0 10
-5 10 -11z m2400 -13 c0 -3 -4 -8 -10 -11 -5 -3 -10 -1 -10 4 0 6 5 11 10 11
6 0 10 -2 10 -4z m20 -10 c0 -2 -8 -10 -17 -17 -16 -13 -17 -12 -4 4 13 16 21
21 21 13z m36 -18 c4 -7 3 -8 -4 -4 -7 4 -12 2 -12 -5 0 -7 -3 -10 -6 -6 -6 5
3 27 11 27 2 0 7 -5 11 -12z m299 -6 c-3 -3 -11 0 -18 7 -9 10 -8 11 6 5 10
-3 15 -9 12 -12z m-339 -18 c-4 -12 -2 -15 9 -10 8 3 15 1 15 -5 0 -6 5 -7 10
-4 6 4 7 12 4 18 -4 7 -4 9 1 5 4 -4 15 -2 24 5 14 10 14 10 4 -4 -7 -9 -10
-19 -6 -22 9 -10 25 -9 19 1 -2 4 -1 14 5 22 6 11 9 11 10 3 2 -15 5 -31 9
-38 1 -3 3 -11 4 -17 0 -7 6 -13 13 -13 6 0 14 -3 17 -7 3 -5 3 -6 0 -3 -6 4
-34 -19 -34 -29 0 -3 6 -3 14 0 8 3 17 1 21 -5 3 -7 0 -8 -10 -5 -11 5 -14 2
-9 -9 3 -9 13 -14 22 -11 14 5 13 2 -2 -10 -16 -13 -22 -13 -34 -3 -13 10 -14
9 -3 -11 11 -21 13 -21 44 -7 20 10 26 11 17 3 -39 -34 -44 -47 -24 -71 19
-21 19 -21 -1 -7 -10 8 -28 23 -38 33 -19 19 -18 19 5 12 l23 -6 -22 20 c-27
23 -58 18 -60 -10 -2 -17 1 -18 13 -8 12 10 13 9 8 -5 -3 -9 -11 -16 -18 -16
-6 0 -4 -5 4 -10 12 -8 9 -10 -10 -8 -20 2 -24 -1 -22 -17 2 -16 1 -17 -7 -5
-6 9 -6 19 -1 26 6 6 7 14 3 18 -4 4 0 4 10 0 13 -5 16 -2 11 10 -3 9 -10 13
-15 10 -5 -2 -18 0 -29 6 -11 6 -20 7 -20 1 0 -5 7 -11 15 -15 18 -6 20 -26 3
-26 -6 0 -8 3 -5 7 4 3 -1 12 -11 20 -16 12 -16 14 1 27 9 7 28 12 42 11 27
-3 32 4 13 23 -13 13 -8 15 16 6 9 -3 14 -9 12 -13 -3 -4 4 -7 14 -7 14 0 16
4 10 17 -5 9 -6 20 -2 24 4 5 1 5 -7 0 -10 -6 -12 -4 -6 4 6 10 3 11 -15 1
-20 -11 -21 -10 -10 9 6 12 13 21 16 21 3 0 2 -4 -1 -10 -3 -6 1 -7 9 -4 9 3
13 11 9 17 -3 5 -2 7 3 4 6 -3 10 5 10 18 0 14 -2 22 -5 19 -4 -3 -6 -11 -6
-16 0 -6 -5 -13 -12 -15 -7 -3 -11 3 -8 15 2 11 -2 19 -10 19 -8 0 -11 -5 -8
-11 4 -6 -1 -5 -10 2 -9 8 -21 11 -27 7 -5 -3 -10 -2 -10 4 0 6 -7 8 -16 4
-14 -5 -13 -3 2 15 22 26 28 28 20 6z m339 -4 c-4 -6 -1 -19 6 -28 12 -16 12
-16 -5 0 -16 14 -15 38 0 38 3 0 2 -5 -1 -10z m-500 -30 c3 -5 1 -10 -4 -10
-6 0 -11 5 -11 10 0 6 2 10 4 10 3 0 8 -4 11 -10z m157 -5 c15 3 30 1 33 -5 4
-6 10 -8 15 -5 12 7 7 -15 -12 -50 -8 -16 -13 -36 -10 -44 3 -10 0 -12 -12 -8
-10 4 -27 2 -39 -4 -20 -9 -19 -8 2 9 18 14 20 21 10 24 -8 3 -20 -2 -27 -11
-11 -14 -11 -12 -2 7 7 14 17 21 25 18 8 -3 12 0 9 7 -2 7 -14 13 -24 14 -11
1 -18 -2 -16 -6 3 -4 1 -13 -5 -21 -7 -13 -9 -13 -9 -1 0 11 -4 9 -16 -5 -15
-18 -15 -18 -4 3 8 18 7 24 -7 33 -15 8 -13 9 10 6 30 -5 31 -3 17 24 -9 16
-8 18 6 13 13 -5 15 -3 9 8 -7 11 -6 12 6 2 8 -7 27 -10 41 -8z m399 -8 c-10
-9 -11 -8 -5 6 3 10 9 15 12 12 3 -3 0 -11 -7 -18z m-586 -7 c3 -6 -1 -7 -9
-4 -18 7 -21 14 -7 14 6 0 13 -4 16 -10z m612 -10 c1 -11 -2 -20 -7 -20 -6 0
-7 17 -1 38 3 8 7 -1 8 -18z m-601 -49 c8 6 17 9 21 5 3 -3 0 -6 -8 -6 -12 0
-12 -2 0 -9 10 -7 11 -13 2 -27 -6 -11 -11 -14 -11 -9 0 6 -9 11 -20 12 -13 1
-18 -2 -13 -10 4 -7 -1 -6 -11 2 -12 10 -14 17 -6 25 5 5 10 14 10 20 0 6 -5
5 -12 -2 -7 -7 -17 -12 -22 -12 -6 0 -3 5 7 11 12 7 16 17 12 32 -4 14 1 10
15 -11 17 -28 23 -32 36 -21z m4 24 c0 -2 -6 -7 -12 -11 -7 -4 -10 -4 -6 1 4
4 0 14 -10 22 -15 13 -15 13 6 3 12 -6 22 -13 22 -15z m1374 -12 l17 -28 -19
22 c-11 12 -23 19 -27 15 -5 -4 -5 -1 -1 6 10 17 11 16 30 -15z m-2414 7 c0
-5 -2 -10 -4 -10 -3 0 -8 5 -11 10 -3 6 -1 10 4 10 6 0 11 -4 11 -10z m1700 0
c0 -3 -9 -11 -19 -17 -15 -10 -22 -9 -30 1 -6 7 -8 16 -4 19 7 8 53 5 53 -3z
m-1543 -17 c-4 -3 -1 -13 6 -22 11 -14 10 -14 -5 -2 -16 12 -16 31 -1 31 4 0
3 -3 0 -7z m1568 -5 c-11 -6 -26 -19 -33 -27 -10 -14 -12 -14 -10 -1 3 15 35
39 53 39 6 0 1 -5 -10 -11z m-440 -8 c3 -6 -1 -7 -9 -4 -18 7 -21 14 -7 14 6
0 13 -4 16 -10z m-1166 -15 c3 -4 -7 -4 -23 -1 -23 4 -27 2 -21 -12 5 -13 3
-14 -6 -5 -6 6 -8 16 -5 22 6 10 43 7 55 -4z m105 7 c3 -5 -1 -9 -9 -9 -8 0
-12 4 -9 9 3 4 7 8 9 8 2 0 6 -4 9 -8z m1527 -9 c13 -16 12 -17 -3 -4 -17 13
-22 21 -14 21 2 0 10 -8 17 -17z m-2858 -17 c4 -10 1 -13 -8 -9 -8 3 -12 9 -9
14 7 12 11 11 17 -5z m1650 -3 c-3 -7 5 -21 18 -31 17 -15 19 -21 9 -27 -8 -5
-11 -4 -6 3 10 16 -13 25 -30 11 -8 -6 -17 -9 -21 -5 -3 3 -1 6 6 6 7 0 10 4
6 10 -3 5 -13 7 -23 4 -14 -5 -14 -4 -2 4 8 6 18 8 23 5 5 -3 6 3 3 14 -4 13
-2 20 8 20 8 0 12 -6 9 -14z m30 0 c-5 -12 -3 -14 7 -8 9 6 11 4 5 -4 -5 -9
-11 -9 -17 -3 -6 6 -7 15 -4 21 11 17 16 13 9 -6z m1687 11 c0 -8 -19 -13 -24
-6 -3 5 1 9 9 9 8 0 15 -2 15 -3z m-2190 -24 c12 -7 10 -9 -8 -7 -12 0 -22 5
-22 9 0 11 12 10 30 -2z m1321 -13 c-10 -9 -11 -8 -5 6 3 10 9 15 12 12 3 -3
0 -11 -7 -18z m839 17 c0 -8 -19 -13 -24 -6 -3 5 1 9 9 9 8 0 15 -2 15 -3z
m-753 -19 c0 -8 -4 -12 -9 -9 -5 3 -6 10 -3 15 9 13 12 11 12 -6z m779 -36 c1
-23 -1 -27 -12 -18 -16 13 -19 23 -4 14 11 -7 14 8 4 18 -9 9 -35 -4 -28 -14
3 -5 -2 -12 -10 -15 -14 -5 -14 -9 0 -32 15 -26 15 -26 -1 -4 -10 12 -22 22
-27 22 -6 0 -5 -7 2 -15 11 -13 10 -14 -4 -9 -23 9 -20 23 8 35 16 7 23 18 21
30 -2 12 1 16 10 13 7 -3 16 0 20 6 10 17 20 3 21 -31z m-2298 -26 c-21 -24
-21 -26 -3 -20 l20 7 -20 -16 c-11 -8 -18 -23 -17 -32 2 -9 1 -14 -3 -10 -11
11 -13 42 -3 55 5 7 7 17 3 22 -3 6 0 8 8 5 8 -3 17 2 20 10 4 9 2 16 -4 16
-6 0 -7 5 -3 11 5 8 10 6 16 -6 8 -12 4 -23 -14 -42z m1424 43 c7 4 8 2 4 -5
-9 -13 -26 -5 -25 12 0 9 2 8 6 -1 2 -6 10 -9 15 -6z m-66 -8 c4 -7 3 -8 -4
-4 -7 4 -12 2 -12 -5 0 -7 -3 -10 -6 -6 -6 5 3 27 11 27 2 0 7 -5 11 -12z
m974 8 c0 -3 -4 -8 -10 -11 -5 -3 -10 -1 -10 4 0 6 5 11 10 11 6 0 10 -2 10
-4z m-2299 -39 c-10 -9 -11 -8 -5 6 3 10 9 15 12 12 3 -3 0 -11 -7 -18z m1350
-5 c-9 -3 -8 -10 6 -26 9 -11 11 -16 4 -9 -16 13 -44 6 -34 -10 3 -5 1 -7 -5
-3 -13 8 -22 -5 -28 -40 -3 -19 -1 -24 8 -18 8 4 10 3 5 -2 -5 -5 -16 -9 -25
-9 -9 0 -16 -5 -15 -10 1 -6 -6 -11 -16 -11 -10 0 -18 6 -18 12 0 7 7 10 16 7
13 -4 12 -1 -2 10 -13 11 -15 16 -5 20 7 2 10 7 7 11 -4 4 -14 0 -22 -9 -14
-14 -16 -13 -14 4 1 12 6 17 16 13 10 -4 12 -1 6 9 -7 12 -6 12 7 1 13 -11 19
-8 37 20 11 18 21 28 21 23 0 -6 -5 -16 -12 -23 -7 -7 -8 -12 -2 -12 17 0 33
22 27 37 -7 18 14 33 36 25 11 -4 11 -7 2 -10z m530 1 c2 1 -7 -8 -21 -20 -29
-25 -16 -31 18 -7 12 8 22 13 22 10 0 -3 -11 -13 -25 -22 -31 -20 -53 -9 -30
16 10 11 14 24 9 32 -6 10 -5 11 8 1 8 -7 17 -12 19 -10z m-57 -9 c3 -8 2 -12
-4 -9 -6 3 -10 10 -10 16 0 14 7 11 14 -7z m421 6 c3 -5 1 -10 -4 -10 -6 0
-11 5 -11 10 0 6 2 10 4 10 3 0 8 -4 11 -10z m-2205 -16 c0 -8 -19 -13 -24 -6
-3 5 1 9 9 9 8 0 15 -2 15 -3z m2100 -4 c8 -5 11 -10 5 -10 -5 0 -17 5 -25 10
-8 5 -10 10 -5 10 6 0 17 -5 25 -10z m-889 -17 c13 -16 12 -17 -3 -4 -17 13
-22 21 -14 21 2 0 10 -8 17 -17z m475 -8 c-1 -14 -10 -33 -21 -43 -18 -16 -18
-16 -4 2 7 11 15 27 15 38 2 23 3 28 7 28 2 0 3 -11 3 -25z m1769 5 c0 -7 -7
-15 -15 -17 -13 -4 -13 -3 0 6 13 10 13 12 0 22 -13 9 -13 10 0 6 8 -2 15 -10
15 -17z m-1795 -2 c0 -4 -4 -8 -9 -8 -6 0 -12 4 -15 8 -3 5 1 9 9 9 8 0 15 -4
15 -9z m-75 -10 c5 4 5 1 1 -6 -6 -10 -11 -10 -22 -1 -8 6 -14 14 -14 16 0 3
6 0 13 -6 8 -6 18 -7 22 -3z m-284 -25 c-12 -20 -14 -14 -5 12 4 9 9 14 11 11
3 -2 0 -13 -6 -23z m489 17 c0 -5 -2 -10 -4 -10 -3 0 -8 5 -11 10 -3 6 -1 10
4 10 6 0 11 -4 11 -10z m57 -10 c1 -11 -1 -22 -5 -24 -4 -2 -8 7 -8 20 -1 13
1 24 5 24 4 0 7 -9 8 -20z m348 10 c-3 -5 -12 -10 -18 -10 -7 0 -6 4 3 10 19
12 23 12 15 0z m-918 -22 c-3 -8 -6 -5 -6 6 -1 11 2 17 5 13 3 -3 4 -12 1 -19z
m-2347 8 c0 -2 -7 -7 -16 -10 -8 -3 -12 -2 -9 4 6 10 25 14 25 6z m2200 0 c0
-2 -7 -7 -16 -10 -8 -3 -12 -2 -9 4 6 10 25 14 25 6z m1371 -73 c-11 -5 -11
-7 0 -14 8 -5 9 -9 3 -9 -6 0 -16 6 -22 13 -8 10 -6 13 11 14 12 0 16 -1 8 -4z
m-1816 -12 c3 -5 2 -12 -3 -15 -5 -3 -9 1 -9 9 0 17 3 19 12 6z m-843 -75 c7
4 8 2 4 -5 -9 -13 -26 -5 -25 12 0 9 2 8 6 -1 2 -6 10 -9 15 -6z m1026 -2 c-2
-10 3 -19 11 -22 8 -3 11 0 7 6 -3 6 -1 14 5 18 8 5 9 3 4 -6 -6 -10 -4 -12 8
-7 10 4 14 2 11 -7 -3 -7 2 -13 11 -14 8 -1 22 -3 30 -4 8 -1 13 -4 10 -6 -3
-3 3 -12 13 -20 12 -10 8 -9 -10 2 -37 22 -45 20 -22 -6 10 -12 13 -18 5 -13
-11 6 -13 4 -8 -9 4 -10 3 -15 -3 -11 -6 3 -10 0 -11 -7 0 -11 -2 -11 -6 0 -4
10 -8 9 -19 -5 -9 -12 -13 -13 -14 -5 0 7 -4 10 -10 7 -5 -3 -10 -1 -10 5 0 6
-4 8 -10 5 -6 -4 -7 1 -3 11 6 15 4 15 -19 0 -21 -14 -25 -14 -25 -1 0 8 5 15
10 15 14 0 -2 15 -16 15 -7 1 -15 -4 -19 -10 -4 -5 -6 0 -5 12 0 12 5 21 10
20 5 -1 12 4 15 12 3 9 0 11 -8 6 -8 -5 -11 -4 -6 3 4 6 14 8 23 5 11 -4 14
-2 9 5 -4 7 1 10 14 7 11 -2 20 0 20 6 0 5 2 9 5 9 3 0 5 -7 3 -16z m-377 -63
c6 -49 6 -49 -18 -38 -17 8 -20 13 -12 23 6 7 8 18 4 23 -3 7 0 8 9 5 9 -3 16
-9 17 -13z m-91 5 c0 -2 -7 -7 -16 -10 -8 -3 -12 -2 -9 4 6 10 25 14 25 6z
m50 -6 c0 -5 -5 -10 -11 -10 -5 0 -7 5 -4 10 3 6 8 10 11 10 2 0 4 -4 4 -10z
m260 6 c0 -2 -7 -7 -16 -10 -8 -3 -12 -2 -9 4 6 10 25 14 25 6z m-180 -26 c0
-5 -5 -10 -11 -10 -5 0 -7 5 -4 10 3 6 8 10 11 10 2 0 4 -4 4 -10z m-225 -20
c3 -5 1 -10 -4 -10 -6 0 -11 5 -11 10 0 6 2 10 4 10 3 0 8 -4 11 -10z m163
-18 c2 -7 -1 -12 -8 -12 -6 0 -8 5 -4 12 5 8 2 9 -10 5 -11 -4 -15 -3 -11 4 8
12 27 7 33 -9z m-58 4 c0 -2 -7 -7 -16 -10 -8 -3 -12 -2 -9 4 6 10 25 14 25 6z
m285 -6 c-3 -5 -12 -10 -18 -10 -7 0 -6 4 3 10 19 12 23 12 15 0z m187 -8 c6
-6 6 -12 -3 -17 -8 -6 -10 -4 -4 5 6 10 4 12 -9 7 -11 -5 -15 -3 -10 5 5 8 2
9 -9 5 -9 -3 -19 -2 -22 3 -7 12 44 5 57 -8z m72 10 c3 -5 -1 -9 -9 -9 -8 0
-12 4 -9 9 3 4 7 8 9 8 2 0 6 -4 9 -8z m-43 -25 c-10 -9 -11 -8 -5 6 3 10 9
15 12 12 3 -3 0 -11 -7 -18z m-418 6 c-7 -2 -13 -12 -13 -20 0 -9 -3 -14 -6
-10 -10 10 4 37 18 36 10 0 10 -2 1 -6z m-203 -23 c0 -5 -5 -10 -11 -10 -5 0
-7 5 -4 10 3 6 8 10 11 10 2 0 4 -4 4 -10z m391 -7 c13 -16 12 -17 -3 -4 -17
13 -22 21 -14 21 2 0 10 -8 17 -17z m-339 -28 c3 3 11 -3 19 -12 12 -16 12
-17 -1 -7 -8 6 -23 10 -33 8 -11 -1 -16 0 -13 3 3 4 0 13 -6 22 -10 12 -7 12
8 -2 11 -9 23 -15 26 -12z m-11 -48 c-10 -9 -11 -8 -5 6 3 10 9 15 12 12 3 -3
0 -11 -7 -18z m96 -4 c0 -9 -4 -10 -12 -3 -7 5 -15 7 -18 3 -4 -3 -7 -1 -7 5
0 6 8 10 18 9 10 0 19 -7 19 -14z m-117 -13 c0 -5 -2 -10 -4 -10 -3 0 -8 5
-11 10 -3 6 -1 10 4 10 6 0 11 -4 11 -10z m224 2 c3 -5 -1 -9 -9 -9 -8 0 -12
4 -9 9 3 4 7 8 9 8 2 0 6 -4 9 -8z m34 -27 c-3 -3 -9 2 -12 12 -6 14 -5 15 5
6 7 -7 10 -15 7 -18z m792 11 c0 -2 -8 -10 -17 -17 -16 -13 -17 -12 -4 4 13
16 21 21 21 13z m-954 -31 c-1 -8 -5 -17 -8 -21 -5 -4 -4 16 1 34 3 9 9 -1 7
-13z m-27 2 c-2 -1 -13 -9 -24 -17 -19 -14 -19 -14 -6 3 7 9 18 17 24 17 6 0
8 -1 6 -3z m-69 -17 c0 -5 -2 -10 -4 -10 -3 0 -8 5 -11 10 -3 6 -1 10 4 10 6
0 11 -4 11 -10z m280 1 c0 -6 -4 -12 -8 -15 -5 -3 -9 1 -9 9 0 8 4 15 9 15 4
0 8 -4 8 -9z m-263 -18 c-4 -3 1 -16 10 -27 14 -15 14 -18 2 -8 -9 6 -18 9
-22 6 -3 -3 -4 2 -2 13 5 24 4 23 12 23 3 0 3 -3 0 -7z m57 -2 c3 -5 -2 -15
-12 -22 -16 -13 -16 -13 -2 5 14 18 13 19 -3 13 -11 -4 -16 -3 -12 3 8 12 22
13 29 1z m52 -23 c3 -4 -1 -5 -10 -4 -8 1 -18 5 -22 8 -3 4 1 5 10 4 8 -1 18
-5 22 -8z m88 4 c3 -5 -1 -9 -9 -9 -8 0 -12 4 -9 9 3 4 7 8 9 8 2 0 6 -4 9 -8z
m37 -9 c13 -16 12 -17 -3 -4 -17 13 -22 21 -14 21 2 0 10 -8 17 -17z m64 8 c3
-5 2 -12 -3 -15 -5 -3 -9 1 -9 9 0 17 3 19 12 6z m-495 -35 c0 -2 -7 -7 -16
-10 -8 -3 -12 -2 -9 4 6 10 25 14 25 6z m320 -6 c0 -5 -4 -10 -10 -10 -5 0
-10 5 -10 10 0 6 5 10 10 10 6 0 10 -4 10 -10z m-40 -14 c0 -3 -4 -8 -10 -11
-5 -3 -10 -1 -10 4 0 6 5 11 10 11 6 0 10 -2 10 -4z m174 -12 c3 -8 2 -12 -4
-9 -6 3 -10 10 -10 16 0 14 7 11 14 -7z m-1704 -14 c0 -5 -5 -10 -11 -10 -5 0
-7 5 -4 10 3 6 8 10 11 10 2 0 4 -4 4 -10z m1250 6 c0 -2 -7 -7 -16 -10 -8 -3
-12 -2 -9 4 6 10 25 14 25 6z m295 -46 c3 -5 1 -10 -4 -10 -6 0 -11 5 -11 10
0 6 2 10 4 10 3 0 8 -4 11 -10z m2170 -139 c3 -5 2 -12 -3 -15 -5 -3 -9 1 -9
9 0 17 3 19 12 6z m-1811 -40 c3 -5 -2 -15 -12 -22 -15 -12 -16 -12 -5 2 7 9
10 19 6 22 -3 4 -4 7 0 7 3 0 8 -4 11 -9z m1906 -15 c0 -3 -4 -8 -10 -11 -5
-3 -10 -1 -10 4 0 6 5 11 10 11 6 0 10 -2 10 -4z m39 -30 c-3 -3 -11 5 -18 17
-13 21 -12 21 5 5 10 -10 16 -20 13 -22z m-18 -8 c11 -21 11 -22 -4 -9 -10 7
-17 17 -17 22 0 15 9 10 21 -13z m-2511 -3 c0 -2 -6 -8 -13 -14 -10 -8 -14 -7
-14 2 0 8 6 14 14 14 7 0 13 -1 13 -2z m-1399 -72 c13 -16 12 -17 -3 -4 -10 7
-18 15 -18 17 0 8 8 3 21 -13z m4809 -87 c0 -3 -4 -8 -10 -11 -5 -3 -10 -1
-10 4 0 6 5 11 10 11 6 0 10 -2 10 -4z m-4231 -42 c-11 -13 -11 -15 2 -12 8 1
14 0 14 -3 0 -3 6 -13 14 -23 25 -30 7 -22 -29 13 -19 18 -29 31 -22 27 7 -4
15 0 18 9 4 9 9 14 12 11 3 -3 -1 -13 -9 -22z m191 16 c0 -5 -2 -10 -4 -10 -3
0 -8 5 -11 10 -3 6 -1 10 4 10 6 0 11 -4 11 -10z m-203 -50 c6 0 18 -11 27
-25 9 -13 22 -22 29 -19 8 3 20 -3 28 -13 7 -10 9 -15 5 -11 -5 4 -16 2 -24
-5 -13 -10 -14 -9 -8 2 7 10 4 12 -12 7 -11 -4 -23 -2 -27 4 -10 16 -25 12
-19 -5 4 -8 2 -15 -3 -15 -11 0 -11 46 0 55 4 3 5 2 2 -2 -5 -7 34 -38 40 -32
2 2 -5 15 -16 28 -13 15 -25 21 -36 17 -10 -4 -14 -4 -11 0 4 4 3 16 -3 28 -9
19 -9 19 4 4 8 -10 19 -18 24 -18z m-705 -47 c-10 -4 -9 -9 5 -20 17 -13 17
-13 -3 -4 -12 6 -25 7 -30 3 -5 -4 -2 1 5 11 7 9 19 17 25 16 6 0 6 -3 -2 -6z
m683 -52 c3 -5 2 -12 -3 -15 -5 -3 -9 1 -9 9 0 17 3 19 12 6z m30 -31 c-3 -5
-10 -10 -16 -10 -5 0 -9 5 -9 10 0 6 7 10 16 10 8 0 12 -4 9 -10z m1715 -4 c0
-2 -8 -10 -17 -17 -16 -13 -17 -12 -4 4 13 16 21 21 21 13z m1873 -31 c-7 -21
-12 -19 -10 4 0 11 5 18 9 15 4 -3 5 -11 1 -19z m-1857 -5 c0 -12 -4 -16 -9
-11 -5 5 -6 14 -3 20 10 15 12 14 12 -9z m-716 -20 c0 -5 -5 -10 -11 -10 -5 0
-7 5 -4 10 3 6 8 10 11 10 2 0 4 -4 4 -10z m1015 1 c3 -5 2 -12 -3 -15 -5 -3
-9 1 -9 9 0 17 3 19 12 6z m-1055 -16 c0 -8 -2 -15 -4 -15 -2 0 -6 7 -10 15
-3 8 -1 15 4 15 6 0 10 -7 10 -15z m140 -3 c0 -5 -7 -9 -15 -9 -8 0 -12 4 -9
9 3 4 9 8 15 8 5 0 9 -4 9 -8z m975 -10 c-3 -3 -11 0 -18 7 -9 10 -8 11 6 5
10 -3 15 -9 12 -12z m-2191 -38 c3 -8 2 -12 -4 -9 -6 3 -10 10 -10 16 0 14 7
11 14 -7z m2166 11 c0 -2 -6 -8 -13 -14 -10 -8 -14 -7 -14 2 0 8 6 14 14 14 7
0 13 -1 13 -2z m-953 -11 c-3 -3 -12 -4 -19 -1 -8 3 -5 6 6 6 11 1 17 -2 13
-5z m-1997 -13 c0 -5 -7 -12 -16 -15 -14 -5 -15 -4 -4 9 14 17 20 19 20 6z
m675 -50 c3 -5 2 -12 -3 -15 -5 -3 -9 1 -9 9 0 17 3 19 12 6z m4707 -16 c9 -6
16 -14 16 -18 0 -16 25 -67 34 -67 5 0 7 4 3 9 -3 5 -1 12 4 16 6 3 9 -7 8
-24 -1 -16 -5 -27 -9 -25 -3 2 -8 -1 -11 -8 -2 -7 -3 -4 -1 7 3 20 3 20 -11 1
-9 -12 -15 -15 -15 -7 0 11 -3 11 -15 1 -13 -11 -14 -10 -10 3 4 10 1 15 -11
14 -9 -1 -18 4 -20 11 -1 7 0 8 3 2 9 -19 19 -10 17 18 -1 15 3 32 8 39 11 14
1 36 -12 28 -5 -3 -11 -1 -14 4 -7 11 13 9 36 -4z m-3151 -82 c13 -17 13 -17
-6 -3 -11 8 -22 16 -24 17 -2 2 0 3 6 3 6 0 17 -8 24 -17z m-2415 -21 c-18
-16 -18 -16 -6 6 6 13 14 21 18 18 3 -4 -2 -14 -12 -24z m12 -53 c-3 -8 -7 -3
-11 10 -4 17 -3 21 5 13 5 -5 8 -16 6 -23z m437 21 c3 -6 -1 -7 -9 -4 -18 7
-21 14 -7 14 6 0 13 -4 16 -10z m-135 -15 c-7 -8 -17 -15 -23 -15 -6 0 -2 7 9
15 25 19 30 19 14 0z m5007 -7 c-3 -8 -6 -5 -6 6 -1 11 2 17 5 13 3 -3 4 -12
1 -19z m-4957 -3 c0 -2 -9 -3 -19 -2 -11 0 -18 5 -15 9 4 6 34 0 34 -7z m2400
11 c0 -3 -4 -8 -10 -11 -5 -3 -10 -1 -10 4 0 6 5 11 10 11 6 0 10 -2 10 -4z
m115 -16 c3 -5 1 -10 -4 -10 -6 0 -11 5 -11 10 0 6 2 10 4 10 3 0 8 -4 11 -10z
m2659 2 c3 -5 -1 -9 -9 -9 -8 0 -12 4 -9 9 3 4 7 8 9 8 2 0 6 -4 9 -8z"/>
<path d="M3320 4757 c0 -5 8 -6 18 -3 14 5 14 4 -2 -9 -11 -8 -17 -17 -15 -20
8 -8 50 26 44 35 -7 11 -45 9 -45 -3z"/>
<path d="M3564 4032 c3 -6 2 -13 -3 -17 -16 -9 -8 -42 13 -55 20 -12 20 -12 2
14 -13 21 -15 31 -6 41 8 10 8 15 -1 21 -7 4 -9 3 -5 -4z"/>
<path d="M3466 3919 c2 -4 13 -7 24 -6 23 2 17 10 -10 12 -10 1 -17 -2 -14 -6z"/>
<path d="M3416 4042 c-6 -10 24 -41 31 -32 3 3 10 -5 16 -17 l12 -22 17 29
c14 24 14 31 3 40 -10 8 -15 8 -20 -1 -6 -8 -10 -7 -16 2 -7 12 -9 12 -9 0 0
-10 -3 -11 -14 -2 -8 7 -17 8 -20 3z m79 -23 c-8 -13 -32 -11 -41 3 -4 6 -3 8
4 4 6 -3 13 -2 17 4 4 6 11 8 16 4 5 -3 7 -10 4 -15z"/>
<path d="M3246 3962 c-2 -4 9 -7 25 -7 31 -1 30 7 -1 12 -10 1 -21 -1 -24 -5z"/>
<path d="M3905 3990 c4 -6 11 -8 16 -5 14 9 11 15 -7 15 -8 0 -12 -5 -9 -10z"/>
<path d="M3567 3843 c-10 -9 -9 -23 1 -23 5 0 9 7 9 15 0 17 -1 18 -10 8z"/>
<path d="M3500 3761 c-13 -25 3 -36 21 -14 10 12 10 14 2 9 -7 -4 -13 -3 -13
3 0 5 6 12 13 14 9 4 9 6 0 6 -7 1 -17 -8 -23 -18z"/>
<path d="M3099 3573 c-13 -14 -19 -23 -13 -20 14 8 37 -16 26 -29 -4 -4 0 -3
9 3 12 10 19 8 33 -8 13 -15 20 -18 30 -10 7 6 15 8 18 5 3 -2 8 2 11 10 4 9
2 18 -4 21 -5 4 -6 11 -3 17 4 6 2 8 -4 4 -6 -3 -13 -2 -17 4 -4 6 -11 8 -16
4 -6 -3 -18 1 -28 10 -16 15 -19 14 -42 -11z m69 -9 c5 3 18 -4 28 -16 11 -12
14 -18 8 -15 -7 4 -15 -1 -18 -10 -6 -14 -10 -13 -31 7 -14 13 -25 20 -25 16
0 -5 -7 -3 -15 4 -12 10 -13 16 -4 27 10 11 15 11 30 -3 10 -9 22 -13 27 -10z"/>
<path d="M3115 3571 c-3 -6 -4 -12 -1 -12 18 -4 26 -7 29 -9 7 -7 46 -6 41 2
-3 4 -10 6 -15 2 -6 -3 -19 2 -29 11 -12 11 -20 13 -25 6z"/>
<path d="M2750 3519 c0 -5 5 -7 10 -4 6 3 10 8 10 11 0 2 -4 4 -10 4 -5 0 -10
-5 -10 -11z"/>
<path d="M6145 2280 c-3 -5 -1 -10 4 -10 6 0 11 5 11 10 0 6 -2 10 -4 10 -3 0
-8 -4 -11 -10z"/>
<path d="M6147 2253 c-12 -11 -8 -22 13 -33 14 -7 20 -7 20 0 0 5 -7 10 -15
10 -18 0 -20 16 -2 23 6 3 7 6 1 6 -6 1 -14 -2 -17 -6z"/>
<path d="M3510 4810 c0 -5 5 -10 11 -10 5 0 7 5 4 10 -3 6 -8 10 -11 10 -2 0
-4 -4 -4 -10z"/>
<path d="M1089 4793 c-8 -9 -9 -14 -2 -10 6 4 13 1 16 -5 3 -7 4 -3 4 10 -1
26 -1 26 -18 5z"/>
<path d="M3240 4801 c0 -7 -5 -9 -12 -5 -7 5 -8 3 -3 -5 5 -9 10 -10 18 -2 6
6 8 14 4 18 -4 3 -7 1 -7 -6z"/>
<path d="M3667 4799 c7 -7 15 -10 18 -7 3 3 -2 9 -12 12 -14 6 -15 5 -6 -5z"/>
<path d="M1196 4748 c3 -5 10 -6 15 -3 13 9 11 12 -6 12 -8 0 -12 -4 -9 -9z"/>
<path d="M1230 4739 c0 -5 5 -7 10 -4 6 3 10 8 10 11 0 2 -4 4 -10 4 -5 0 -10
-5 -10 -11z"/>
<path d="M5582 4724 c10 -10 20 -16 22 -13 3 3 -5 11 -17 18 -21 13 -21 12 -5
-5z"/>
<path d="M5624 4729 c1 -7 10 -13 19 -15 9 -1 15 2 11 7 -3 5 -9 7 -14 4 -4
-3 -11 0 -13 5 -3 6 -4 5 -3 -1z"/>
<path d="M1410 4659 c0 -5 5 -7 10 -4 6 3 10 8 10 11 0 2 -4 4 -10 4 -5 0 -10
-5 -10 -11z"/>
<path d="M1451 4644 c0 -11 3 -14 6 -6 3 7 2 16 -1 19 -3 4 -6 -2 -5 -13z"/>
<path d="M4270 4523 c0 -5 5 -15 10 -23 7 -12 9 -10 7 8 -1 19 -17 33 -17 15z"/>
<path d="M6015 4440 c-10 -11 -16 -20 -13 -20 3 0 15 9 28 20 13 11 19 20 13
20 -5 0 -18 -9 -28 -20z"/>
<path d="M1750 4426 c0 -2 7 -7 16 -10 8 -3 12 -2 9 4 -6 10 -25 14 -25 6z"/>
<path d="M5038 4333 c10 -4 10 -8 0 -21 -12 -15 -11 -16 4 -3 19 14 15 32 -5
30 -8 0 -8 -2 1 -6z"/>
<path d="M1958 4133 c7 -3 16 -2 19 1 4 3 -2 6 -13 5 -11 0 -14 -3 -6 -6z"/>
<path d="M1063 4093 c-7 -3 -13 -9 -13 -15 0 -7 5 -6 14 1 11 9 16 9 21 0 6
-8 9 -8 15 1 4 7 12 0 22 -20 11 -23 17 -27 21 -17 3 9 -1 18 -9 21 -9 3 -12
10 -9 16 3 5 3 11 -2 11 -29 5 -50 5 -60 2z"/>
<path d="M4873 4063 c0 -9 4 -10 14 -2 7 6 13 12 13 14 0 1 -6 2 -13 2 -8 0
-14 -6 -14 -14z"/>
<path d="M1100 4051 c0 -7 -5 -9 -12 -5 -7 5 -8 3 -3 -5 5 -9 10 -10 18 -2 6
6 8 14 4 18 -4 3 -7 1 -7 -6z"/>
<path d="M1110 4021 c0 -6 5 -11 10 -11 6 0 10 -5 10 -11 0 -5 -4 -7 -10 -4
-5 3 -10 1 -10 -4 0 -19 19 -12 31 12 6 12 8 19 4 15 -5 -4 -14 -3 -22 3 -9 9
-13 8 -13 0z"/>
<path d="M4850 4019 c0 -5 5 -7 10 -4 6 3 10 8 10 11 0 2 -4 4 -10 4 -5 0 -10
-5 -10 -11z"/>
<path d="M2024 4000 c2 -16 20 -14 24 2 3 10 2 10 -6 -1 -7 -9 -11 -10 -15 -2
-4 7 -5 8 -3 1z"/>
<path d="M5787 3979 c7 -7 15 -10 18 -7 3 3 -2 9 -12 12 -14 6 -15 5 -6 -5z"/>
<path d="M2045 3961 c-3 -5 -2 -12 3 -15 5 -3 9 1 9 9 0 17 -3 19 -12 6z"/>
<path d="M2221 3943 c-11 -12 -10 -14 5 -11 14 2 19 -3 18 -19 -1 -12 4 -19
10 -17 6 2 12 16 12 30 1 14 -1 23 -4 20 -3 -3 -10 -2 -16 3 -7 6 -16 3 -25
-6z"/>
<path d="M2081 3841 c-8 -5 -9 -11 -3 -15 5 -3 12 1 16 9 6 17 6 18 -13 6z"/>
<path d="M4740 3806 c0 -2 8 -10 18 -17 15 -13 16 -12 3 4 -13 16 -21 21 -21
13z"/>
<path d="M4766 3742 c-3 -5 1 -9 9 -9 8 0 12 4 9 9 -3 4 -7 8 -9 8 -2 0 -6 -4
-9 -8z"/>
<path d="M1158 3278 c10 -13 10 -17 0 -21 -9 -4 -9 -6 -1 -6 20 -2 24 16 5 30
-15 13 -16 12 -4 -3z"/>
<path d="M5728 3183 c7 -3 16 -2 19 1 4 3 -2 6 -13 5 -11 0 -14 -3 -6 -6z"/>
<path d="M1065 2900 c-3 -6 1 -7 9 -4 18 7 21 14 7 14 -6 0 -13 -4 -16 -10z"/>
<path d="M5835 2861 c-3 -5 -2 -12 3 -15 5 -3 9 1 9 9 0 17 -3 19 -12 6z"/>
<path d="M1946 2841 c-3 -5 1 -14 9 -21 10 -9 15 -9 15 -1 0 6 -6 11 -12 11
-9 0 -8 4 2 10 9 6 10 10 3 10 -6 0 -14 -4 -17 -9z"/>
<path d="M5916 2678 c3 -5 10 -6 15 -3 13 9 11 12 -6 12 -8 0 -12 -4 -9 -9z"/>
<path d="M5947 2629 c7 -7 15 -10 18 -7 3 3 -2 9 -12 12 -14 6 -15 5 -6 -5z"/>
<path d="M5050 2623 c0 -6 8 -17 18 -24 16 -13 16 -13 2 6 -8 11 -16 22 -17
24 -2 2 -3 0 -3 -6z"/>
<path d="M845 2510 c-3 -5 -3 -10 1 -10 4 0 0 -6 -11 -13 -12 -9 -14 -16 -7
-21 6 -3 16 3 22 14 6 11 7 20 3 20 -4 0 -1 5 7 10 9 6 10 10 3 10 -6 0 -15
-4 -18 -10z"/>
<path d="M4134 2349 c-3 -6 -3 -13 0 -16 3 -4 6 -1 6 5 0 6 7 9 15 6 8 -4 15
-4 15 -1 0 11 -30 16 -36 6z"/>
<path d="M5816 2166 c3 -9 13 -16 22 -16 8 0 13 1 11 3 -2 1 -12 9 -22 16 -15
12 -17 12 -11 -3z"/>
<path d="M3510 2150 c0 -5 5 -10 10 -10 6 0 10 5 10 10 0 6 -4 10 -10 10 -5 0
-10 -4 -10 -10z"/>
<path d="M800 2140 c-9 -6 -10 -10 -3 -10 6 0 15 5 18 10 8 12 4 12 -15 0z"/>
<path d="M3376 2138 c3 -4 11 -5 19 -1 21 7 19 12 -4 10 -11 0 -18 -5 -15 -9z"/>
</g>
</svg>
